<svg width="124" height="118" viewBox="0 0 124 118" fill="none" xmlns="http://www.w3.org/2000/svg">
<path fill-rule="evenodd" clip-rule="evenodd" d="M109.108 60.0854C105.4 37.2184 85.6041 19.7617 61.7399 19.7617C37.9154 19.7617 18.1456 37.1603 14.3903 59.9713C13.2769 59.4768 12.0447 59.2021 10.7485 59.2021C5.77876 59.2021 1.75 63.2398 1.75 68.2205C1.75 73.2013 5.77876 77.2389 10.7485 77.2389C12.0895 77.2389 13.362 76.9449 14.5054 76.4177C18.5337 98.8988 38.149 115.958 61.7399 115.958C85.3718 115.958 105.014 98.8394 108.995 76.3004C110.201 76.9011 111.559 77.2389 112.997 77.2389C117.966 77.2389 121.995 73.2013 121.995 68.2205C121.995 63.2398 117.966 59.2021 112.997 59.2021C111.604 59.2021 110.285 59.5193 109.108 60.0854Z" fill="#CDEDE5" stroke="#4ABFA1" stroke-width="3.46029" stroke-linecap="round" stroke-linejoin="round"/>
<path fill-rule="evenodd" clip-rule="evenodd" d="M49.5573 61.0679C49.5573 57.3542 46.5766 54.3438 42.8997 54.3438C39.2229 54.3438 36.2422 57.3542 36.2422 61.0679" fill="#CDEDE5"/>
<path d="M49.5573 61.0679C49.5573 57.3542 46.5766 54.3438 42.8997 54.3438C39.2229 54.3438 36.2422 57.3542 36.2422 61.0679" stroke="#4ABFA1" stroke-width="3.46029" stroke-linecap="round" stroke-linejoin="round"/>
<path fill-rule="evenodd" clip-rule="evenodd" d="M87.5963 61.0679C87.5963 57.3542 84.6156 54.3438 80.9388 54.3438C77.2619 54.3438 74.2812 57.3542 74.2812 61.0679" fill="#CDEDE5"/>
<path d="M87.5963 61.0679C87.5963 57.3542 84.6156 54.3438 80.9388 54.3438C77.2619 54.3438 74.2812 57.3542 74.2812 61.0679" stroke="#4ABFA1" stroke-width="3.46029" stroke-linecap="round" stroke-linejoin="round"/>
<path fill-rule="evenodd" clip-rule="evenodd" d="M75.2317 77.3965C75.2317 84.8237 69.2704 90.8447 61.9166 90.8447C54.5629 90.8447 48.6016 84.8237 48.6016 77.3965" fill="#CDEDE5"/>
<path d="M75.2317 77.3965C75.2317 84.8237 69.2704 90.8447 61.9166 90.8447C54.5629 90.8447 48.6016 84.8237 48.6016 77.3965" stroke="#4ABFA1" stroke-width="3.46029" stroke-linecap="round" stroke-linejoin="round"/>
<path d="M62.3094 19.7624C61.1559 18.609 59.5411 15.6101 62.3094 12.8418C65.7697 9.38152 65.7686 5.92123 64.0384 4.19108C62.6543 2.80697 61.1548 2.46094 60.5781 2.46094" stroke="#4ABFA1" stroke-width="3.46029"/>
</svg>
