<svg width="99" height="85" viewBox="0 0 99 85" fill="none" xmlns="http://www.w3.org/2000/svg">
<path d="M35.16 72.4701L2.29288 18.9917C1.62682 17.6237 2.16479 15.9461 3.52251 15.275L29.6267 2.06025C30.9844 1.36338 32.6495 1.9312 33.3156 3.29913L56.32 61.759L35.16 72.4701Z" fill="#CDEDE5" stroke="#4ABFA1" stroke-width="2.84508" stroke-miterlimit="10"/>
<path d="M18.2031 11.9199L21.0979 17.7014" stroke="#4ABFA1" stroke-width="2.84508" stroke-miterlimit="10" stroke-linecap="round" stroke-linejoin="round"/>
<path d="M23.1484 9.43945L26.0176 15.2209" stroke="#4ABFA1" stroke-width="2.84508" stroke-miterlimit="10" stroke-linecap="round" stroke-linejoin="round"/>
<path d="M27.7422 6.26367L30.637 12.0451" stroke="#4ABFA1" stroke-width="2.84508" stroke-miterlimit="10" stroke-linecap="round" stroke-linejoin="round"/>
<path d="M13.2812 14.4277L16.176 20.2092" stroke="#4ABFA1" stroke-width="2.84508" stroke-miterlimit="10" stroke-linecap="round" stroke-linejoin="round"/>
<path d="M8.33594 16.9277L11.2051 22.7092" stroke="#4ABFA1" stroke-width="2.84508" stroke-miterlimit="10" stroke-linecap="round" stroke-linejoin="round"/>
<path d="M55.0677 62.8711L59.935 72.6273C60.6267 73.9952 60.0631 75.6729 58.7054 76.3439L45.3843 83.0804C44.0266 83.7772 42.3615 83.2094 41.6954 81.8415L36.8281 72.0853" stroke="#4ABFA1" stroke-width="2.84508" stroke-miterlimit="10" stroke-linecap="round" stroke-linejoin="round"/>
<path d="M92.6303 37.7018C91.8458 34.3463 88.513 32.2828 85.2099 33.0551C81.9341 33.821 79.9034 37.0804 80.5932 40.4C78.7752 40.0129 76.8369 39.9729 74.8987 40.4261C67.8011 42.0855 63.4187 49.2016 65.0906 56.3527C66.7626 63.5037 73.8457 67.9392 80.9433 66.2797C88.0409 64.6203 92.4232 57.5042 90.7513 50.3532C90.2883 48.3729 89.3597 46.6175 88.1758 45.1249C91.405 44.2828 93.4019 41.0023 92.6303 37.7018Z" fill="#CDEDE5" stroke="#4ABFA1" stroke-width="2.84508" stroke-miterlimit="10"/>
<path d="M66.1907 28.0393C68.0602 27.6022 69.2187 25.721 68.7784 23.8374C68.338 21.9539 66.4655 20.7813 64.596 21.2183C62.7265 21.6554 61.5679 23.5367 62.0083 25.4202C62.4487 27.3038 64.3212 28.4764 66.1907 28.0393Z" stroke="#4ABFA1" stroke-width="2.84508" stroke-miterlimit="10"/>
</svg>
