<svg width="95" height="104" viewBox="0 0 95 104" fill="none" xmlns="http://www.w3.org/2000/svg">
<path fill-rule="evenodd" clip-rule="evenodd" d="M71.7269 97.0268C69.9469 99.8082 66.8128 101.655 63.2534 101.655H37.9839H12.7144C7.18843 101.655 2.6875 97.2042 2.6875 91.7142V42.0529C2.6875 27.2544 13.9184 22.2139 13.9184 22.2139C20.7076 18.475 17.9774 14.2422 17.9774 14.2422H37.9839H57.9904C57.9904 14.2422 55.2602 18.475 62.0494 22.2139C62.0494 22.2139 66.3973 24.1652 69.6825 29.2042C67.3444 33.1395 65.9071 38.2079 65.9071 43.0141C65.9071 49.9529 68.903 55.9679 73.2803 58.928V63.3193L71.1648 93.3575C71.0724 94.6692 71.279 95.9131 71.7269 97.0268Z" fill="#CDEDE5" stroke="#4ABFA1" stroke-width="3.5122" stroke-linecap="round" stroke-linejoin="round"/>
<path fill-rule="evenodd" clip-rule="evenodd" d="M57.8792 45.0607C57.8792 43.393 56.5286 42.041 54.8726 42.041H2.6875V81.783H54.8726C56.5331 81.783 57.8792 80.4379 57.8792 78.7633V45.0607Z" fill="white" stroke="#4ABFA1" stroke-width="3.5122" stroke-linecap="round" stroke-linejoin="round"/>
<path fill-rule="evenodd" clip-rule="evenodd" d="M12.7188 6.32061C12.7188 4.10052 14.5193 2.30078 16.7399 2.30078H58.8719C61.0927 2.30078 62.893 4.09862 62.893 6.32061V10.2036C62.893 12.4236 61.0925 14.2234 58.8719 14.2234H16.7399C14.5191 14.2234 12.7188 12.4255 12.7188 10.2036V6.32061Z" stroke="#4ABFA1" stroke-width="3.5122" stroke-linecap="round" stroke-linejoin="round"/>
<path fill-rule="evenodd" clip-rule="evenodd" d="M84.5906 59.5527C89.5209 56.8832 92.9934 50.4836 92.9934 43.0133C92.9934 33.1445 86.9332 22.1699 79.4576 22.1699C71.982 22.1699 65.9219 33.1445 65.9219 43.0133C65.9219 50.4699 69.3816 56.8598 74.2976 59.538C73.7678 60.3931 73.432 61.3749 73.3585 62.4188L71.1796 93.3567C70.8445 98.1156 74.4448 101.981 79.2218 101.981C83.9891 101.981 87.6394 98.1197 87.3533 93.3567L85.4946 62.4188C85.4323 61.382 85.1084 60.4052 84.5906 59.5527V59.5527Z" fill="white" stroke="#4ABFA1" stroke-width="3.5122" stroke-linecap="round" stroke-linejoin="round"/>
</svg>
