<svg width="79" height="107" viewBox="0 0 79 107" fill="none" xmlns="http://www.w3.org/2000/svg">
<path d="M9.96875 36.6264L36.3573 26.4766" stroke="#4ABFA1" stroke-width="3.14237" stroke-miterlimit="10" stroke-linecap="round" stroke-linejoin="round"/>
<path d="M14.0234 46.8414L40.412 36.6602" stroke="#4ABFA1" stroke-width="3.14237" stroke-miterlimit="10" stroke-linecap="round" stroke-linejoin="round"/>
<path d="M18.1094 57.0229L44.466 46.873" stroke="#4ABFA1" stroke-width="3.14237" stroke-miterlimit="10" stroke-linecap="round" stroke-linejoin="round"/>
<path d="M22.1875 67.2321L48.5441 57.0508" stroke="#4ABFA1" stroke-width="3.14237" stroke-miterlimit="10" stroke-linecap="round" stroke-linejoin="round"/>
<path d="M39.9908 4.23373L76.954 97.028C77.6568 98.7877 76.8582 101.742 75.5483 102.244L70.1811 104.318C68.8713 104.821 67.21 103.816 66.5391 102.056L56.891 78.0481L33.761 86.9724C31.1414 87.978 28.0744 86.5325 26.9562 83.7358L26.6048 82.8873C25.4867 80.122 26.7326 76.9797 29.3523 75.9741L52.5461 67.0183L32.2276 16.2062L9.09761 25.1305C6.47792 26.1361 3.41096 24.6906 2.2928 21.8939L1.97333 21.0454C0.855165 18.2487 2.10112 15.1692 4.72081 14.1636L36.3168 1.97122C37.6267 1.46844 39.288 2.474 39.9908 4.23373Z" fill="#CDEDE5" stroke="#4ABFA1" stroke-width="3.14237" stroke-miterlimit="10" stroke-linecap="round" stroke-linejoin="round"/>
</svg>
