<svg width="112" height="101" viewBox="0 0 112 101" fill="none" xmlns="http://www.w3.org/2000/svg">
<path d="M24.9299 98.6794H5.36477C3.7118 98.6794 2.35938 97.3492 2.35938 95.7233V58.4171C2.35938 56.7912 3.7118 55.4609 5.36477 55.4609H24.9299C26.5828 55.4609 27.9353 56.7912 27.9353 58.4171V95.7233C27.9353 97.3492 26.5828 98.6794 24.9299 98.6794Z" fill="#B5E4D9" stroke="#4ABFA1" stroke-width="2.95612" stroke-miterlimit="10"/>
<path d="M6.92969 37.9384V18.3097C6.92969 17.5707 7.07996 16.8317 7.4406 16.1518C8.5526 14.0529 10.0252 12.1314 11.6782 9.73699L15.8256 3.79518C16.9677 2.16931 19.4321 1.84414 20.7244 3.35176C23.3692 6.48525 22.7982 14.7328 22.7982 17.1864L22.8583 37.495" stroke="#4ABFA1" stroke-width="2.95612" stroke-miterlimit="10"/>
<path d="M5.60156 55.4713V40.4542C5.60156 38.8283 6.83377 37.498 8.36652 37.498H21.9208C23.4235 37.498 24.6858 38.8283 24.6858 40.4542V55.4713" stroke="#4ABFA1" stroke-width="2.95612" stroke-miterlimit="10"/>
<path d="M98.9778 98.6858H49.2686C45.9627 98.6858 43.2578 96.0253 43.2578 92.7736V43.8497C43.2578 40.598 45.9627 37.9375 49.2686 37.9375H99.0078C102.314 37.9375 105.019 40.598 105.019 43.8497V92.7736C104.989 96.0253 102.284 98.6858 98.9778 98.6858Z" fill="#B5E4D9" stroke="#4ABFA1" stroke-width="2.95612" stroke-miterlimit="10" stroke-linecap="round" stroke-linejoin="round"/>
<path d="M61.4165 65.8419C66.6948 65.8419 70.9737 61.6332 70.9737 56.4415C70.9737 51.2497 66.6948 47.041 61.4165 47.041C56.1383 47.041 51.8594 51.2497 51.8594 56.4415C51.8594 61.6332 56.1383 65.8419 61.4165 65.8419Z" fill="white" stroke="#4ABFA1" stroke-width="2.21709" stroke-miterlimit="10" stroke-linecap="round" stroke-linejoin="round"/>
<path d="M86.8228 65.8419C92.101 65.8419 96.3799 61.6332 96.3799 56.4415C96.3799 51.2497 92.101 47.041 86.8228 47.041C81.5445 47.041 77.2656 51.2497 77.2656 56.4415C77.2656 61.6332 81.5445 65.8419 86.8228 65.8419Z" fill="white" stroke="#4ABFA1" stroke-width="2.21709" stroke-miterlimit="10" stroke-linecap="round" stroke-linejoin="round"/>
<path d="M61.4165 89.5763C66.6948 89.5763 70.9737 85.3676 70.9737 80.1759C70.9737 74.9841 66.6948 70.7754 61.4165 70.7754C56.1383 70.7754 51.8594 74.9841 51.8594 80.1759C51.8594 85.3676 56.1383 89.5763 61.4165 89.5763Z" fill="white" stroke="#4ABFA1" stroke-width="2.21709" stroke-miterlimit="10" stroke-linecap="round" stroke-linejoin="round"/>
<path d="M86.8228 89.5763C92.101 89.5763 96.3799 85.3676 96.3799 80.1759C96.3799 74.9841 92.101 70.7754 86.8228 70.7754C81.5445 70.7754 77.2656 74.9841 77.2656 80.1759C77.2656 85.3676 81.5445 89.5763 86.8228 89.5763Z" fill="white" stroke="#4ABFA1" stroke-width="2.21709" stroke-miterlimit="10" stroke-linecap="round" stroke-linejoin="round"/>
<path d="M106.623 37.9334H41.646C39.9931 37.9334 38.6406 36.6031 38.6406 34.9773V29.7745C38.6406 28.1486 39.9931 26.8184 41.646 26.8184H106.623C108.276 26.8184 109.628 28.1486 109.628 29.7745V35.0068C109.628 36.6031 108.276 37.9334 106.623 37.9334Z" fill="#B5E4D9" stroke="#4ABFA1" stroke-width="2.95612" stroke-miterlimit="10" stroke-linecap="round" stroke-linejoin="round"/>
</svg>
