<svg width="85" height="96" viewBox="0 0 85 96" fill="none" xmlns="http://www.w3.org/2000/svg">
<path d="M42.3199 94.3743C64.9073 94.3743 83.218 73.7629 83.218 48.3375C83.218 22.9121 64.9073 2.30078 42.3199 2.30078C19.7326 2.30078 1.42188 22.9121 1.42188 48.3375C1.42188 73.7629 19.7326 94.3743 42.3199 94.3743Z" fill="#CDEDE5" stroke="#4ABFA1" stroke-width="2.84508" stroke-miterlimit="10"/>
<path d="M2.77344 51.6094H8.81897" stroke="#4ABFA1" stroke-width="2.84508" stroke-miterlimit="10" stroke-linecap="round" stroke-linejoin="round"/>
<path d="M75.5781 51.6094H81.6237" stroke="#4ABFA1" stroke-width="2.84508" stroke-miterlimit="10" stroke-linecap="round" stroke-linejoin="round"/>
<path d="M19.8642 19.7978L14.6953 14.6289" stroke="#4ABFA1" stroke-width="2.84508" stroke-miterlimit="10" stroke-linecap="round" stroke-linejoin="round"/>
<path d="M40.8238 9.60013L40.4297 2.30078" stroke="#4ABFA1" stroke-width="2.84508" stroke-miterlimit="10" stroke-linecap="round" stroke-linejoin="round"/>
<path d="M64.5703 19.9188L69.8602 14.6289" stroke="#4ABFA1" stroke-width="2.84508" stroke-miterlimit="10" stroke-linecap="round" stroke-linejoin="round"/>
<path d="M19.8642 76.2715L14.6953 81.4404" stroke="#4ABFA1" stroke-width="2.84508" stroke-miterlimit="10" stroke-linecap="round" stroke-linejoin="round"/>
<path d="M64.5703 76.1426L69.8602 81.4324" stroke="#4ABFA1" stroke-width="2.84508" stroke-miterlimit="10" stroke-linecap="round" stroke-linejoin="round"/>
<path d="M32.2624 38.418C31.688 39.9898 29.7535 41.2594 26.6702 41.2594C23.587 41.2594 21.7129 39.8387 21.0781 38.418" fill="#CDEDE5"/>
<path d="M32.2624 38.418C31.688 39.9898 29.7535 41.2594 26.6702 41.2594C23.587 41.2594 21.7129 39.8387 21.0781 38.418" stroke="#4ABFA1" stroke-width="2.84508" stroke-miterlimit="10" stroke-linecap="round" stroke-linejoin="round"/>
<path d="M53.664 64.5723C52.5153 67.7764 48.5857 70.3155 42.3286 70.3155C36.0715 70.3155 32.293 67.4439 31.0234 64.5723" fill="#CDEDE5"/>
<path d="M53.664 64.5723C52.5153 67.7764 48.5857 70.3155 42.3286 70.3155C36.0715 70.3155 32.293 67.4439 31.0234 64.5723" stroke="#4ABFA1" stroke-width="2.84508" stroke-miterlimit="10" stroke-linecap="round" stroke-linejoin="round"/>
<path d="M62.8874 38.418C62.313 39.9898 60.3785 41.2594 57.2952 41.2594C54.212 41.2594 52.3379 39.8387 51.7031 38.418" fill="#CDEDE5"/>
<path d="M62.8874 38.418C62.313 39.9898 60.3785 41.2594 57.2952 41.2594C54.212 41.2594 52.3379 39.8387 51.7031 38.418" stroke="#4ABFA1" stroke-width="2.84508" stroke-miterlimit="10" stroke-linecap="round" stroke-linejoin="round"/>
<path d="M46.0644 47.9199L47.8781 53.6027C47.8781 55.5675 46.276 57.1998 44.281 57.1998H39.3237C37.3589 57.1998 35.7266 55.5978 35.7266 53.6027L37.51 47.9199" fill="#CDEDE5"/>
<path d="M46.0644 47.9199L47.8781 53.6027C47.8781 55.5675 46.276 57.1998 44.281 57.1998H39.3237C37.3589 57.1998 35.7266 55.5978 35.7266 53.6027L37.51 47.9199" stroke="#4ABFA1" stroke-width="2.84508" stroke-miterlimit="10" stroke-linecap="round" stroke-linejoin="round"/>
</svg>
