<svg width="114" height="113" viewBox="0 0 114 113" fill="none" xmlns="http://www.w3.org/2000/svg">
<path d="M52.7171 53.1172L52.25 98.3454" stroke="#4ABFA1" stroke-width="2.76823" stroke-linecap="round" stroke-linejoin="round"/>
<path d="M92.7263 73.9393V32.2946C92.7263 31.6713 92.5608 31.0593 92.2467 30.521C91.9326 29.9827 91.4812 29.5374 90.9386 29.2308L53.9855 8.34421C53.4572 8.0456 52.8606 7.88867 52.2538 7.88867C51.6469 7.88867 51.0503 8.0456 50.522 8.34421L13.5689 29.2308C13.0263 29.5374 12.5749 29.9827 12.2608 30.521C11.9468 31.0593 11.7813 31.6713 11.7813 32.2946V73.9393C11.7812 74.5625 11.9467 75.1746 12.2608 75.7129C12.5749 76.2512 13.0263 76.6964 13.5689 77.0031L50.522 97.8897C51.0503 98.1883 51.6469 98.3452 52.2538 98.3452C52.8606 98.3452 53.4572 98.1883 53.9855 97.8897L90.9386 77.0031C91.4812 76.6964 91.9326 76.2512 92.2467 75.7129C92.5608 75.1746 92.7263 74.5625 92.7263 73.9393V73.9393Z" stroke="#4ABFA1" stroke-width="2.76823" stroke-linecap="round" stroke-linejoin="round"/>
<path d="M92.2202 30.5146L52.6966 53.1145L12.2422 30.5098" stroke="#4ABFA1" stroke-width="2.76823" stroke-linecap="round" stroke-linejoin="round"/>
<path d="M73.8699 62.1391V41.023L33.0547 18.2168" stroke="#4ABFA1" stroke-width="2.76823" stroke-linecap="round" stroke-linejoin="round"/>
<path d="M69.8312 75.7146L85.1849 90.1378C85.7137 90.6346 85.9782 90.883 86.29 90.9442C86.4304 90.9718 86.5748 90.9718 86.7152 90.9442C87.027 90.883 87.2914 90.6346 87.8203 90.1378L87.8203 90.1378L103.174 75.7146C107.494 71.6565 108.019 64.9786 104.385 60.2957L103.702 59.4152C99.3557 53.8132 90.6314 54.7527 87.5773 61.1516C87.1459 62.0555 85.8593 62.0555 85.4279 61.1516C82.3738 54.7527 73.6495 53.8132 69.3031 59.4152L68.6199 60.2957C64.9867 64.9786 65.5113 71.6565 69.8312 75.7146Z" fill="#4ABFA1" stroke="#4ABFA1" stroke-width="4.41667"/>
</svg>
