<svg width="87" height="88" viewBox="0 0 87 88" fill="none" xmlns="http://www.w3.org/2000/svg">
<path d="M82.5628 85.6738H4.9138C3.38856 85.6738 2.14062 84.4936 2.14062 83.0512V37.8902C2.14062 36.4477 3.38856 35.2676 4.9138 35.2676H82.5628C84.0881 35.2676 85.336 36.4477 85.336 37.8902V83.025C85.336 84.4936 84.0881 85.6738 82.5628 85.6738Z" fill="#CDEDE5" stroke="#4ABFA1" stroke-width="2.76823" stroke-miterlimit="10"/>
<path d="M6.54688 35.2647V26.0595C6.54688 23.9614 8.37717 22.2305 10.5957 22.2305H76.6528C78.8714 22.2305 80.7017 23.9614 80.7017 26.0595V35.2647" stroke="#4ABFA1" stroke-width="2.76823" stroke-miterlimit="10"/>
<path d="M63.5943 72.143H4.9138C3.38856 72.143 2.14062 70.9628 2.14062 69.5204V52.0015C2.14062 50.5591 3.38856 49.3789 4.9138 49.3789H63.5943C65.1195 49.3789 66.3674 50.5591 66.3674 52.0015V69.5204C66.3674 70.9628 65.1195 72.143 63.5943 72.143Z" fill="white" stroke="#4ABFA1" stroke-width="2.76823" stroke-miterlimit="10"/>
<path d="M10.6017 22.2325C10.6017 22.2325 10.4631 14.4434 18.6994 12.9223C18.6994 12.9223 28.4887 11.4536 35.9763 10.5095C43.4639 9.56536 56.1373 8.09671 59.0769 4.76602C59.0769 4.76602 61.129 2.66794 61.2122 2.30078C61.2122 2.30078 73.3865 6.39202 76.3815 21.0523C76.3815 21.0523 76.6588 22.2325 76.3815 22.2325" stroke="#4ABFA1" stroke-width="2.76823" stroke-miterlimit="10" stroke-linecap="round" stroke-linejoin="round"/>
</svg>
