<svg width="115" height="114" viewBox="0 0 115 114" fill="none" xmlns="http://www.w3.org/2000/svg">
<g clip-path="url(#clip0_3963_24768)">
<g clip-path="url(#clip1_3963_24768)">
<path d="M60.1282 75.1653C58.2421 75.4374 56.8278 78.3727 51.3848 77.5017C49.2989 76.9567 47.481 76.2901 45.7491 75.1653C44.2069 74.1912 43.5556 73.62 41.9881 72.8663C40.4205 72.1125 39.1325 72.8662 39.1325 72.8662C34.2188 76.0791 35.218 77.5017 30.0476 77.5017C28.0629 77.5017 25.4327 77.0971 23.7387 76.2854C21.3874 75.1373 19.39 75.4504 19.5923 78.3727C19.8438 82.0074 20.9541 88.7017 25.9749 95.3961C33.5989 104.833 36.1427 96.8168 37.6899 93.7225C39.3635 90.3753 42.8906 90.5754 44.919 96.1016C47.7314 103.764 52.7521 98.7432 56.0992 94.5902C59.4464 90.4372 62.6154 83.6061 62.8555 78.8749C62.982 76.5209 62.3643 74.8426 60.1282 75.1653Z" stroke="#4ABFA1" stroke-width="1.67358" stroke-miterlimit="10"/>
<path d="M40.7776 110.451C36.6939 110.464 32.7044 109.207 29.3451 106.85C21.0763 101.052 14.8411 92.7326 11.5426 83.0973C9.96516 82.6427 8.55574 81.7241 7.49223 80.4574C6.42871 79.1906 5.75877 77.6325 5.56696 75.9797L4.50877 71.0733C3.47133 66.3142 5.04824 62.6501 8.65852 61.155C8.7636 60.9707 8.9203 60.8222 9.10873 60.7285C9.29715 60.6347 9.50877 60.6 9.71671 60.6286C9.87927 60.6313 10.0397 60.6668 10.1886 60.7331C10.3374 60.7994 10.4718 60.8951 10.5838 61.0147C10.6959 61.1343 10.7833 61.2753 10.841 61.4296C10.8988 61.5838 10.9257 61.7482 10.9201 61.9131H9.67521L10.9201 62.0184V62.9871L9.98645 63.3872C5.98193 64.5453 6.64589 69.2623 6.93638 70.5258L7.99456 75.4322C8.32654 76.9273 9.40548 80.444 12.58 80.7177H13.41L13.659 81.5179C16.7251 90.9202 22.7272 99.0521 30.756 104.682C33.701 106.739 37.192 107.84 40.7673 107.84C44.3425 107.84 47.8335 106.739 50.7785 104.682C58.8071 99.0566 64.8037 90.9223 67.8548 81.5179L68.1453 80.6335H69.0997C72.5233 80.6335 73.6852 76.9063 74.0379 75.3059L75.0961 70.3994C75.5198 68.806 75.4326 67.1169 74.8471 65.5772C74.5679 64.9246 74.1303 64.3544 73.5751 63.9199C73.02 63.4854 72.3654 63.2007 71.6726 63.0923L70.7596 62.9449V61.9763C70.7365 61.6366 70.845 61.3012 71.0621 61.0415C71.2791 60.7819 71.5875 60.6186 71.9215 60.5865C72.175 60.5647 72.4288 60.6236 72.6478 60.7549C73.6515 60.9916 74.5878 61.4607 75.3833 62.1255C76.1787 62.7904 76.8119 63.633 77.2332 64.5874C78.0177 66.5984 78.1557 68.8095 77.6275 70.9048L76.5693 75.8113C75.6563 80.0228 73.2495 82.6761 70.0542 83.0552C66.7461 92.6396 60.5276 100.912 52.2932 106.682C48.9289 109.112 44.9071 110.429 40.7776 110.451V110.451Z" fill="#4ABFA1"/>
<path d="M59.515 26.7909L57.0459 26.5382C57.1114 25.9649 57.1461 25.3885 57.1496 24.8114C57.1496 20.4496 55.4423 16.2665 52.4033 13.1822C49.3644 10.098 45.2426 8.36526 40.9448 8.36526C36.6471 8.36526 32.5253 10.098 29.4863 13.1822C26.4473 16.2665 24.74 20.4496 24.74 24.8114C24.7092 25.3655 24.7092 25.9209 24.74 26.475L22.2502 26.7277C22.2187 26.0893 22.2187 25.4498 22.2502 24.8114C22.2502 19.785 24.2176 14.9645 27.7196 11.4103C31.2217 7.8561 35.9715 5.85938 40.9241 5.85938C45.8767 5.85938 50.6265 7.8561 54.1285 11.4103C57.6306 14.9645 59.598 19.785 59.598 24.8114C59.6123 25.4724 59.5846 26.1335 59.515 26.7909Z" fill="#4ABFA1"/>
<path d="M11.0027 62.3973L8.51282 62.2709C8.51282 61.197 7.1849 35.5064 25.838 23.3561C28.1619 21.8399 40.5489 14.7645 56.1727 23.5245C74.5562 35.8223 73.3112 61.197 73.249 62.292H70.7591V62.1867C70.7591 61.8498 71.9626 37.0858 54.8656 25.6514C40.5697 17.6073 29.3031 24.072 27.1867 25.4408C9.77849 36.8331 10.9819 61.8919 11.0027 62.1446V62.3973Z" fill="#4ABFA1"/>
<path d="M70.7526 50.1669C70.4536 50.1673 70.1651 50.0547 69.9434 49.8511C38.177 21.3598 13.0503 48.5876 11.9921 49.8511C11.8817 49.9741 11.7486 50.0739 11.6002 50.1447C11.4519 50.2156 11.2912 50.2561 11.1275 50.2639C10.9637 50.2717 10.8 50.2467 10.6458 50.1903C10.4915 50.1339 10.3497 50.0473 10.2285 49.9353C10.1072 49.8233 10.0089 49.6882 9.93908 49.5376C9.86929 49.387 9.8294 49.224 9.82169 49.0578C9.81399 48.8916 9.83861 48.7254 9.89416 48.5689C9.94971 48.4123 10.0351 48.2684 10.1455 48.1454C10.4152 47.8295 38.0111 17.9485 71.5826 48.0401C71.6986 48.1575 71.7907 48.2969 71.8536 48.4505C71.9164 48.6041 71.9487 48.7688 71.9487 48.935C71.9487 49.1013 71.9164 49.266 71.8536 49.4196C71.7907 49.5731 71.6986 49.7126 71.5826 49.83C71.36 50.0482 71.0621 50.1691 70.7526 50.1669Z" fill="#4ABFA1"/>
<path d="M64.3586 34.6054C64.1211 34.607 63.889 34.5334 63.6946 34.3948C56.9819 29.9876 49.1761 27.601 41.1816 27.5116C33.1872 27.4221 25.3314 29.6335 18.5246 33.8894C18.2371 34.0629 17.8944 34.116 17.569 34.0374C17.2436 33.9588 16.9612 33.7546 16.7817 33.4683C16.6039 33.1898 16.5391 32.8524 16.601 32.5265C16.6629 32.2007 16.8466 31.9119 17.1136 31.7205C17.3419 31.552 40.124 16.0745 64.9396 32.1837C65.2104 32.3014 65.4314 32.5127 65.5632 32.7801C65.695 33.0475 65.7291 33.3537 65.6594 33.6442C65.5897 33.9347 65.4207 34.1907 65.1825 34.3667C64.9444 34.5427 64.6524 34.6273 64.3586 34.6054V34.6054Z" fill="#4ABFA1"/>
<path d="M12.1337 69.9993C11.9337 69.9961 11.7372 69.9448 11.5605 69.8497C11.3838 69.7545 11.2318 69.6182 11.117 69.4518C9.67762 67.3378 8.78569 64.8901 8.52344 62.3343C8.52344 62.1684 8.55564 62.0041 8.6182 61.8508C8.68077 61.6975 8.77247 61.5582 8.88807 61.4409C9.00367 61.3236 9.14091 61.2305 9.29195 61.167C9.44299 61.1035 9.60488 61.0708 9.76836 61.0708C10.0106 61.0708 10.2476 61.1425 10.4503 61.2772C10.6531 61.4118 10.8126 61.6036 10.9095 61.8289C11.4198 58.5039 12.8196 55.3848 14.9562 52.8116C17.0929 50.2384 19.8845 48.3097 23.0268 47.2358L23.4003 47.0674C36.6588 42.4978 39.7711 36.1805 39.7918 36.1173C39.8682 35.96 39.9755 35.8202 40.1071 35.7066C40.2387 35.5929 40.3918 35.5079 40.557 35.4566C40.7223 35.4053 40.8961 35.3889 41.0678 35.4083C41.2395 35.4278 41.4055 35.4828 41.5555 35.5698C41.7036 35.6378 41.8368 35.7351 41.9475 35.8559C42.0581 35.9767 42.144 36.1187 42.2 36.2736C42.256 36.4284 42.2811 36.593 42.2737 36.7578C42.2664 36.9226 42.2268 37.0843 42.1572 37.2334C42.012 37.5282 38.7129 44.5404 24.3755 49.489L24.0435 49.6154C20.3134 50.9323 17.1828 53.5816 15.2357 57.0688C13.2886 60.556 12.658 64.6431 13.4616 68.5674C13.5196 68.8544 13.4792 69.1528 13.3471 69.4132C13.215 69.6737 12.9992 69.8805 12.7354 69.9993C12.5371 70.0426 12.332 70.0426 12.1337 69.9993Z" fill="#4ABFA1"/>
<path d="M69.6714 70.0006C69.5548 70.0223 69.4352 70.0223 69.3186 70.0006C69.0142 69.9162 68.7536 69.7158 68.5912 69.4412C68.4288 69.1665 68.3772 68.8388 68.4472 68.5265C69.2508 64.6022 68.6203 60.5151 66.6732 57.0279C64.7261 53.5407 61.5954 50.8914 57.8653 49.5745L57.4711 49.406C43.1959 44.4995 39.8761 37.4873 39.7516 37.1925C39.6817 37.0418 39.6418 36.8787 39.6341 36.7123C39.6265 36.546 39.6514 36.3797 39.7073 36.2232C39.7633 36.0666 39.8491 35.9228 39.96 35.8001C40.0709 35.6773 40.2045 35.578 40.3534 35.5078C40.6546 35.3755 40.9942 35.365 41.3028 35.4785C41.6114 35.5921 41.8656 35.821 42.0133 36.1185C42.0133 36.2449 45.2086 42.4359 58.3218 47.0475L58.799 47.237C61.9214 48.3127 64.6956 50.232 66.8234 52.7885C68.9511 55.3449 70.3519 58.4418 70.8748 61.7459C71.0166 61.4747 71.2494 61.264 71.5311 61.1519C71.8127 61.0399 72.1246 61.034 72.4102 61.1352C72.7177 61.2534 72.9667 61.4902 73.1027 61.794C73.2388 62.0978 73.2509 62.4438 73.1364 62.7567L70.8333 69.074C70.7597 69.3325 70.6079 69.561 70.3994 69.7272C70.1909 69.8935 69.9363 69.9891 69.6714 70.0006V70.0006Z" fill="#4ABFA1"/>
<ellipse cx="80.5867" cy="19.8323" rx="2.72731" ry="2.74638" fill="#4ABFA1" fill-opacity="0.53"/>
<ellipse cx="79.9049" cy="19.1457" rx="2.04548" ry="2.05979" fill="#4ABFA1" fill-opacity="0.53"/>
<ellipse cx="24.6683" cy="81.6232" rx="1.36366" ry="1.37319" fill="#4ABFA1"/>
<ellipse cx="49.2465" cy="81.6232" rx="1.36366" ry="1.37319" fill="#4ABFA1"/>
<ellipse cx="27.4027" cy="92.6056" rx="1.36366" ry="1.37319" fill="#4ABFA1"/>
<ellipse cx="57.4105" cy="84.3654" rx="1.36366" ry="1.37319" fill="#4ABFA1"/>
<ellipse cx="31.4929" cy="85.7386" rx="2.72731" ry="2.74638" fill="#4ABFA1"/>
<ellipse cx="53.7976" cy="89.7737" rx="2.72731" ry="2.74638" fill="#4ABFA1"/>
</g>
<path d="M46.0156 24.0018V60.8484L77.4645 79.2771L108.924 60.8484V24.0018L77.4645 5.58398L46.0156 24.0018Z" fill="white" stroke="#4ABFA1" stroke-width="3.34716" stroke-miterlimit="10"/>
<path d="M77.4531 5.58398V79.2663" stroke="#4ABFA1" stroke-width="0.334716" stroke-miterlimit="10"/>
<path d="M46.0703 24.0352L108.914 60.8491" stroke="#4ABFA1" stroke-width="0.334716" stroke-miterlimit="10"/>
<path d="M47.3672 59.9776L108.279 24.2109" stroke="#4ABFA1" stroke-width="0.334716" stroke-miterlimit="10"/>
<path d="M77.4959 12.5586L105.168 26.1694L105.028 58.5421L77.4959 68.5566L59.4162 53.1322L57.9141 31.0351L77.4959 12.5586Z" fill="url(#paint0_linear_3963_24768)"/>
<path d="M77.3191 15.0571C78.3798 15.0571 79.2397 14.1847 79.2397 13.1086C79.2397 12.0325 78.3798 11.1602 77.3191 11.1602C76.2583 11.1602 75.3984 12.0325 75.3984 13.1086C75.3984 14.1847 76.2583 15.0571 77.3191 15.0571Z" fill="#4ABFA1"/>
<path d="M104.733 27.9711C105.794 27.9711 106.654 27.0988 106.654 26.0227C106.654 24.9466 105.794 24.0742 104.733 24.0742C103.672 24.0742 102.812 24.9466 102.812 26.0227C102.812 27.0988 103.672 27.9711 104.733 27.9711Z" fill="#4ABFA1"/>
<path d="M104.436 60.0747C105.497 60.0747 106.357 59.2023 106.357 58.1262C106.357 57.0501 105.497 56.1777 104.436 56.1777C103.376 56.1777 102.516 57.0501 102.516 58.1262C102.516 59.2023 103.376 60.0747 104.436 60.0747Z" fill="#4ABFA1"/>
<path d="M77.4284 70.5082C78.4892 70.5082 79.3491 69.6359 79.3491 68.5598C79.3491 67.4837 78.4892 66.6113 77.4284 66.6113C76.3677 66.6113 75.5078 67.4837 75.5078 68.5598C75.5078 69.6359 76.3677 70.5082 77.4284 70.5082Z" fill="#4ABFA1"/>
<path d="M58.4284 33.2504C59.4892 33.2504 60.3491 32.3781 60.3491 31.302C60.3491 30.2259 59.4892 29.3535 58.4284 29.3535C57.3677 29.3535 56.5078 30.2259 56.5078 31.302C56.5078 32.3781 57.3677 33.2504 58.4284 33.2504Z" fill="#4ABFA1"/>
<path d="M59.3737 55.0805C60.4345 55.0805 61.2944 54.2082 61.2944 53.1321C61.2944 52.0559 60.4345 51.1836 59.3737 51.1836C58.313 51.1836 57.4531 52.0559 57.4531 53.1321C57.4531 54.2082 58.313 55.0805 59.3737 55.0805Z" fill="#4ABFA1"/>
</g>
<defs>
<linearGradient id="paint0_linear_3963_24768" x1="127.156" y1="12.5586" x2="53.7389" y2="56.2525" gradientUnits="userSpaceOnUse">
<stop stop-color="#4ABFA1"/>
<stop offset="1" stop-color="#4DC8A8" stop-opacity="0"/>
</linearGradient>
<clipPath id="clip0_3963_24768">
<rect width="113.803" height="113.803" fill="white" transform="translate(0.867188)"/>
</clipPath>
<clipPath id="clip1_3963_24768">
<rect width="73.6374" height="107.109" fill="white" transform="translate(4.25 3.35156)"/>
</clipPath>
</defs>
</svg>
