<svg width="57" height="89" viewBox="0 0 57 89" fill="none" xmlns="http://www.w3.org/2000/svg">
<path d="M44.2777 66.5805H12.7394C11.2402 66.5805 10.0135 65.3538 10.0135 63.8546L1.83594 4.94853C1.83594 3.4493 3.06258 2.22266 4.56181 2.22266H52.4553C53.9546 2.22266 55.1812 3.4493 55.1812 4.94853L47.0036 63.8546C47.0036 65.3538 45.777 66.5805 44.2777 66.5805Z" fill="#CDEDE5" stroke="#4ABFA1" stroke-width="2.72587" stroke-miterlimit="10"/>
<path d="M43.247 87.4837H13.7259C12.2266 87.4837 11 86.257 11 84.7578V69.3294C11 67.8302 12.2266 66.6035 13.7259 66.6035H43.247C44.7463 66.6035 45.9729 67.8302 45.9729 69.3294V84.7578C45.9729 86.257 44.7463 87.4837 43.247 87.4837Z" stroke="#4ABFA1" stroke-width="2.72587" stroke-miterlimit="10"/>
<path d="M28.5322 41.3164C31.1216 41.3164 33.2207 39.2173 33.2207 36.628C33.2207 34.0386 31.1216 31.9395 28.5322 31.9395C25.9429 31.9395 23.8438 34.0386 23.8438 36.628C23.8438 39.2173 25.9429 41.3164 28.5322 41.3164Z" fill="white" stroke="#4ABFA1" stroke-width="2.0444" stroke-miterlimit="10" stroke-linecap="round" stroke-linejoin="round"/>
<path d="M28.5156 23.7812V27.4884" stroke="#4ABFA1" stroke-width="2.0444" stroke-miterlimit="10" stroke-linecap="round" stroke-linejoin="round"/>
<path d="M17.4062 30.2168L20.6228 32.0704" stroke="#4ABFA1" stroke-width="2.0444" stroke-miterlimit="10" stroke-linecap="round" stroke-linejoin="round"/>
<path d="M17.4062 43.0587L20.6228 41.2051" stroke="#4ABFA1" stroke-width="2.0444" stroke-miterlimit="10" stroke-linecap="round" stroke-linejoin="round"/>
<path d="M28.5156 49.4612V45.7812" stroke="#4ABFA1" stroke-width="2.0444" stroke-miterlimit="10" stroke-linecap="round" stroke-linejoin="round"/>
<path d="M39.654 43.0587L36.4375 41.2051" stroke="#4ABFA1" stroke-width="2.0444" stroke-miterlimit="10" stroke-linecap="round" stroke-linejoin="round"/>
<path d="M39.654 30.2168L36.4375 32.0704" stroke="#4ABFA1" stroke-width="2.0444" stroke-miterlimit="10" stroke-linecap="round" stroke-linejoin="round"/>
</svg>
