<svg width="86" height="21" viewBox="0 0 86 21" fill="none" xmlns="http://www.w3.org/2000/svg">
<mask id="path-1-inside-1_4052_25609" fill="white">
<path d="M0 21L0 0L76.5117 0L86 10L76.5117 21L0 21Z"/>
</mask>
<path d="M0 21L0 0L76.5117 0L86 10L76.5117 21L0 21Z" fill="#F0FAF7"/>
<path d="M0 21H-0.617647V21.6176H0L0 21ZM0 0L0 -0.617647H-0.617647V0H0ZM76.5117 0L76.9597 -0.425129L76.7771 -0.617647H76.5117V0ZM76.5117 21V21.6176H76.7946L76.9794 21.4034L76.5117 21ZM86 10L86.4677 10.4034L86.8327 9.98026L86.4481 9.57487L86 10ZM0.617647 21L0.617647 0H-0.617647L-0.617647 21H0.617647ZM0 0.617647L76.5117 0.617647V-0.617647L0 -0.617647L0 0.617647ZM76.5117 20.3824L0 20.3824L0 21.6176L76.5117 21.6176V20.3824ZM76.0636 0.425129L85.5519 10.4251L86.4481 9.57487L76.9597 -0.425129L76.0636 0.425129ZM85.5323 9.59658L76.044 20.5966L76.9794 21.4034L86.4677 10.4034L85.5323 9.59658Z" fill="#4ABFA1" mask="url(#path-1-inside-1_4052_25609)"/>
<path d="M10.5337 7.53768H12.7988C13.2855 7.53768 13.7004 7.61098 14.0435 7.75759C14.3865 7.9042 14.649 8.12117 14.8307 8.40852C15.0155 8.69293 15.1078 9.04479 15.1078 9.46408C15.1078 9.78368 15.0492 10.0652 14.9319 10.3085C14.8146 10.5519 14.649 10.7571 14.4349 10.9243C14.2209 11.0885 13.9658 11.216 13.6696 11.3069L13.3354 11.4696H11.299L11.2902 10.5944H12.8164C13.0803 10.5944 13.3002 10.5475 13.4761 10.4537C13.652 10.3598 13.784 10.2323 13.8719 10.071C13.9628 9.90683 14.0083 9.7221 14.0083 9.51685C14.0083 9.29401 13.9643 9.1005 13.8763 8.9363C13.7913 8.76917 13.6594 8.64162 13.4805 8.55366C13.3017 8.46276 13.0744 8.41731 12.7988 8.41731H11.6377V13.9414H10.5337V7.53768ZM14.1886 13.9414L12.6844 11.065L13.8412 11.0606L15.3673 13.8842V13.9414H14.1886ZM18.1997 14.0294C17.8479 14.0294 17.5298 13.9722 17.2453 13.8578C16.9639 13.7406 16.7234 13.5778 16.524 13.3696C16.3276 13.1615 16.1766 12.9166 16.071 12.6352C15.9655 12.3537 15.9127 12.0502 15.9127 11.7247V11.5488C15.9127 11.1764 15.9669 10.8392 16.0754 10.5372C16.1839 10.2352 16.3349 9.9772 16.5284 9.76315C16.722 9.54618 16.9507 9.38051 17.2145 9.26616C17.4784 9.15181 17.7643 9.09463 18.0722 9.09463C18.4123 9.09463 18.7099 9.15181 18.965 9.26616C19.2201 9.38051 19.4312 9.54178 19.5984 9.74996C19.7684 9.9552 19.8945 10.2 19.9766 10.4845C20.0616 10.7689 20.1041 11.0826 20.1041 11.4257V11.8787H16.4273V11.1178H19.0574V11.0342C19.0515 10.8436 19.0134 10.6648 18.943 10.4976C18.8756 10.3305 18.7715 10.1956 18.6308 10.093C18.49 9.99039 18.3024 9.93908 18.0678 9.93908C17.8919 9.93908 17.735 9.9772 17.5972 10.0534C17.4623 10.1267 17.3494 10.2338 17.2585 10.3745C17.1676 10.5152 17.0973 10.6853 17.0474 10.8847C17.0005 11.0811 16.977 11.3025 16.977 11.5488V11.7247C16.977 11.9329 17.0049 12.1264 17.0606 12.3053C17.1193 12.4812 17.2043 12.6352 17.3157 12.7671C17.4271 12.899 17.562 13.0031 17.7203 13.0794C17.8787 13.1527 18.059 13.1893 18.2613 13.1893C18.5164 13.1893 18.7436 13.138 18.943 13.0354C19.1424 12.9328 19.3154 12.7876 19.462 12.6L20.0206 13.1409C19.918 13.2905 19.7845 13.4342 19.6203 13.572C19.4561 13.7068 19.2553 13.8168 19.0178 13.9018C18.7832 13.9869 18.5105 14.0294 18.1997 14.0294ZM22.875 13.1849C23.048 13.1849 23.2034 13.1512 23.3412 13.0838C23.4819 13.0134 23.5948 12.9166 23.6798 12.7935C23.7678 12.6703 23.8162 12.5281 23.825 12.3669H24.8234C24.8175 12.6747 24.7266 12.9548 24.5507 13.2069C24.3748 13.4591 24.1417 13.6599 23.8514 13.8095C23.5611 13.9561 23.24 14.0294 22.8882 14.0294C22.5246 14.0294 22.2079 13.9678 21.9382 13.8446C21.6684 13.7186 21.4441 13.5456 21.2653 13.3257C21.0864 13.1058 20.9515 12.8521 20.8606 12.5648C20.7727 12.2774 20.7287 11.9696 20.7287 11.6412V11.4872C20.7287 11.1588 20.7727 10.851 20.8606 10.5636C20.9515 10.2733 21.0864 10.0182 21.2653 9.79834C21.4441 9.57843 21.6684 9.4069 21.9382 9.28375C22.2079 9.15767 22.5231 9.09463 22.8838 9.09463C23.265 9.09463 23.5992 9.17087 23.8866 9.32334C24.1739 9.47287 24.3997 9.68252 24.5639 9.95227C24.731 10.2191 24.8175 10.5299 24.8234 10.8847H23.825C23.8162 10.7088 23.7722 10.5504 23.693 10.4097C23.6168 10.266 23.5083 10.1517 23.3676 10.0666C23.2298 9.98159 23.0641 9.93908 22.8706 9.93908C22.6565 9.93908 22.4792 9.98306 22.3384 10.071C22.1977 10.1561 22.0877 10.2733 22.0085 10.4229C21.9294 10.5695 21.8722 10.7351 21.837 10.9199C21.8048 11.1017 21.7886 11.2908 21.7886 11.4872V11.6412C21.7886 11.8376 21.8048 12.0282 21.837 12.2129C21.8693 12.3977 21.925 12.5633 22.0041 12.7099C22.0862 12.8536 22.1977 12.9694 22.3384 13.0574C22.4792 13.1424 22.658 13.1849 22.875 13.1849ZM25.4347 11.6148V11.5136C25.4347 11.1706 25.4846 10.8524 25.5843 10.5592C25.6839 10.2631 25.8276 10.0065 26.0153 9.78954C26.2059 9.56963 26.4375 9.39957 26.7102 9.27935C26.9858 9.15621 27.2966 9.09463 27.6426 9.09463C27.9915 9.09463 28.3023 9.15621 28.575 9.27935C28.8506 9.39957 29.0837 9.56963 29.2743 9.78954C29.4649 10.0065 29.61 10.2631 29.7097 10.5592C29.8094 10.8524 29.8593 11.1706 29.8593 11.5136V11.6148C29.8593 11.9578 29.8094 12.276 29.7097 12.5692C29.61 12.8624 29.4649 13.1189 29.2743 13.3389C29.0837 13.5558 28.8521 13.7259 28.5794 13.849C28.3067 13.9693 27.9974 14.0294 27.6514 14.0294C27.3025 14.0294 26.9902 13.9693 26.7146 13.849C26.4419 13.7259 26.2103 13.5558 26.0197 13.3389C25.8291 13.1189 25.6839 12.8624 25.5843 12.5692C25.4846 12.276 25.4347 11.9578 25.4347 11.6148ZM26.4947 11.5136V11.6148C26.4947 11.8288 26.5167 12.0311 26.5606 12.2217C26.6046 12.4123 26.6735 12.5794 26.7674 12.7231C26.8612 12.8668 26.9814 12.9797 27.128 13.0618C27.2746 13.1439 27.4491 13.1849 27.6514 13.1849C27.8478 13.1849 28.0179 13.1439 28.1616 13.0618C28.3082 12.9797 28.4284 12.8668 28.5222 12.7231C28.6161 12.5794 28.685 12.4123 28.7289 12.2217C28.7759 12.0311 28.7993 11.8288 28.7993 11.6148V11.5136C28.7993 11.3025 28.7759 11.1031 28.7289 10.9155C28.685 10.7249 28.6146 10.5563 28.5178 10.4097C28.424 10.2631 28.3038 10.1487 28.1572 10.0666C28.0135 9.98159 27.842 9.93908 27.6426 9.93908C27.4432 9.93908 27.2702 9.98159 27.1236 10.0666C26.9799 10.1487 26.8612 10.2631 26.7674 10.4097C26.6735 10.5563 26.6046 10.7249 26.5606 10.9155C26.5167 11.1031 26.4947 11.3025 26.4947 11.5136ZM31.8077 10.1502V13.9414H30.7477V9.18259H31.7461L31.8077 10.1502ZM31.6361 11.3861L31.2755 11.3817C31.2755 11.0533 31.3165 10.7498 31.3986 10.4713C31.4807 10.1927 31.6009 9.95081 31.7593 9.74556C31.9176 9.53738 32.1141 9.37758 32.3486 9.26616C32.5861 9.15181 32.8603 9.09463 33.1711 9.09463C33.3881 9.09463 33.586 9.12688 33.7648 9.19139C33.9466 9.25297 34.1035 9.35119 34.2354 9.48607C34.3703 9.62094 34.4729 9.79394 34.5433 10.0051C34.6166 10.2162 34.6533 10.4713 34.6533 10.7703V13.9414H33.5933V10.8627C33.5933 10.6311 33.5581 10.4493 33.4878 10.3173C33.4203 10.1854 33.3221 10.0915 33.1931 10.0358C33.067 9.9772 32.916 9.94787 32.7401 9.94787C32.5407 9.94787 32.3706 9.98599 32.2299 10.0622C32.0921 10.1385 31.9792 10.2426 31.8912 10.3745C31.8033 10.5064 31.7387 10.6589 31.6977 10.8319C31.6566 11.0049 31.6361 11.1896 31.6361 11.3861ZM34.5873 11.1046L34.0903 11.2145C34.0903 10.9272 34.1299 10.656 34.209 10.4009C34.2911 10.1429 34.4099 9.91709 34.5653 9.72357C34.7236 9.52712 34.9186 9.37318 35.1503 9.26176C35.3819 9.15034 35.6472 9.09463 35.9463 9.09463C36.1897 9.09463 36.4067 9.12835 36.5973 9.19579C36.7908 9.2603 36.955 9.36292 37.0898 9.50366C37.2247 9.6444 37.3273 9.82766 37.3977 10.0534C37.4681 10.2763 37.5033 10.546 37.5033 10.8627V13.9414H36.4389V10.8583C36.4389 10.6179 36.4037 10.4317 36.3334 10.2997C36.2659 10.1678 36.1692 10.0769 36.0431 10.027C35.917 9.97426 35.766 9.94787 35.5901 9.94787C35.4259 9.94787 35.2807 9.97866 35.1547 10.0402C35.0315 10.0989 34.9274 10.1824 34.8424 10.2909C34.7574 10.3965 34.6928 10.5182 34.6489 10.656C34.6078 10.7938 34.5873 10.9433 34.5873 11.1046ZM39.654 10.1502V13.9414H38.594V9.18259H39.5924L39.654 10.1502ZM39.4824 11.3861L39.1218 11.3817C39.1218 11.0533 39.1628 10.7498 39.2449 10.4713C39.327 10.1927 39.4473 9.95081 39.6056 9.74556C39.7639 9.53738 39.9604 9.37758 40.1949 9.26616C40.4324 9.15181 40.7066 9.09463 41.0174 9.09463C41.2344 9.09463 41.4323 9.12688 41.6112 9.19139C41.7929 9.25297 41.9498 9.35119 42.0818 9.48607C42.2166 9.62094 42.3193 9.79394 42.3896 10.0051C42.4629 10.2162 42.4996 10.4713 42.4996 10.7703V13.9414H41.4396V10.8627C41.4396 10.6311 41.4044 10.4493 41.3341 10.3173C41.2666 10.1854 41.1684 10.0915 41.0394 10.0358C40.9133 9.9772 40.7623 9.94787 40.5864 9.94787C40.387 9.94787 40.2169 9.98599 40.0762 10.0622C39.9384 10.1385 39.8255 10.2426 39.7375 10.3745C39.6496 10.5064 39.5851 10.6589 39.544 10.8319C39.503 11.0049 39.4824 11.1896 39.4824 11.3861ZM42.4336 11.1046L41.9366 11.2145C41.9366 10.9272 41.9762 10.656 42.0554 10.4009C42.1375 10.1429 42.2562 9.91709 42.4116 9.72357C42.57 9.52712 42.7649 9.37318 42.9966 9.26176C43.2282 9.15034 43.4936 9.09463 43.7926 9.09463C44.036 9.09463 44.253 9.12835 44.4436 9.19579C44.6371 9.2603 44.8013 9.36292 44.9362 9.50366C45.071 9.6444 45.1737 9.82766 45.244 10.0534C45.3144 10.2763 45.3496 10.546 45.3496 10.8627V13.9414H44.2852V10.8583C44.2852 10.6179 44.2501 10.4317 44.1797 10.2997C44.1122 10.1678 44.0155 10.0769 43.8894 10.027C43.7633 9.97426 43.6123 9.94787 43.4364 9.94787C43.2722 9.94787 43.1271 9.97866 43.001 10.0402C42.8778 10.0989 42.7737 10.1824 42.6887 10.2909C42.6037 10.3965 42.5392 10.5182 42.4952 10.656C42.4541 10.7938 42.4336 10.9433 42.4336 11.1046ZM48.5383 14.0294C48.1864 14.0294 47.8683 13.9722 47.5839 13.8578C47.3024 13.7406 47.0619 13.5778 46.8626 13.3696C46.6661 13.1615 46.5151 12.9166 46.4096 12.6352C46.304 12.3537 46.2512 12.0502 46.2512 11.7247V11.5488C46.2512 11.1764 46.3055 10.8392 46.4139 10.5372C46.5224 10.2352 46.6734 9.9772 46.867 9.76315C47.0605 9.54618 47.2892 9.38051 47.5531 9.26616C47.817 9.15181 48.1028 9.09463 48.4107 9.09463C48.7508 9.09463 49.0484 9.15181 49.3035 9.26616C49.5586 9.38051 49.7697 9.54178 49.9369 9.74996C50.1069 9.9552 50.233 10.2 50.3151 10.4845C50.4002 10.7689 50.4427 11.0826 50.4427 11.4257V11.8787H46.7658V11.1178H49.3959V11.0342C49.39 10.8436 49.3519 10.6648 49.2816 10.4976C49.2141 10.3305 49.11 10.1956 48.9693 10.093C48.8285 9.99039 48.6409 9.93908 48.4063 9.93908C48.2304 9.93908 48.0735 9.9772 47.9357 10.0534C47.8008 10.1267 47.688 10.2338 47.5971 10.3745C47.5062 10.5152 47.4358 10.6853 47.3859 10.8847C47.339 11.0811 47.3156 11.3025 47.3156 11.5488V11.7247C47.3156 11.9329 47.3434 12.1264 47.3991 12.3053C47.4578 12.4812 47.5428 12.6352 47.6542 12.7671C47.7657 12.899 47.9005 13.0031 48.0589 13.0794C48.2172 13.1527 48.3975 13.1893 48.5998 13.1893C48.8549 13.1893 49.0822 13.138 49.2816 13.0354C49.4809 12.9328 49.6539 12.7876 49.8005 12.6L50.3591 13.1409C50.2565 13.2905 50.1231 13.4342 49.9589 13.572C49.7947 13.7068 49.5938 13.8168 49.3563 13.9018C49.1218 13.9869 48.8491 14.0294 48.5383 14.0294ZM52.3207 10.1986V13.9414H51.2607V9.18259H52.2591L52.3207 10.1986ZM52.1316 11.3861L51.7885 11.3817C51.7914 11.0445 51.8384 10.7351 51.9292 10.4537C52.0231 10.1722 52.1521 9.93028 52.3163 9.72797C52.4834 9.52565 52.6828 9.37025 52.9144 9.26176C53.1461 9.15034 53.4041 9.09463 53.6885 9.09463C53.9172 9.09463 54.1239 9.12688 54.3087 9.19139C54.4963 9.25297 54.6561 9.35412 54.7881 9.49486C54.9229 9.63561 55.0256 9.81886 55.0959 10.0446C55.1663 10.2675 55.2015 10.5416 55.2015 10.8671V13.9414H54.1371V10.8627C54.1371 10.634 54.1034 10.4537 54.036 10.3217C53.9715 10.1868 53.8762 10.0915 53.7501 10.0358C53.6269 9.9772 53.473 9.94787 53.2883 9.94787C53.1065 9.94787 52.9438 9.98599 52.8001 10.0622C52.6564 10.1385 52.5347 10.2426 52.435 10.3745C52.3383 10.5064 52.2635 10.6589 52.2107 10.8319C52.158 11.0049 52.1316 11.1896 52.1316 11.3861ZM59.1862 12.9562V7.18583H60.2506V13.9414H59.2874L59.1862 12.9562ZM56.0899 11.6148V11.5224C56.0899 11.1618 56.1324 10.8334 56.2175 10.5372C56.3025 10.2382 56.4256 9.98159 56.5869 9.76755C56.7482 9.55057 56.9446 9.38491 57.1763 9.27056C57.4079 9.15327 57.6688 9.09463 57.9591 9.09463C58.2465 9.09463 58.4986 9.15034 58.7156 9.26176C58.9326 9.37318 59.1173 9.53298 59.2698 9.74116C59.4223 9.94641 59.5439 10.1927 59.6348 10.4801C59.7257 10.7645 59.7902 11.0811 59.8283 11.4301V11.7247C59.7902 12.0649 59.7257 12.3757 59.6348 12.6571C59.5439 12.9386 59.4223 13.182 59.2698 13.3872C59.1173 13.5925 58.9311 13.7508 58.7112 13.8622C58.4942 13.9737 58.2406 14.0294 57.9503 14.0294C57.663 14.0294 57.4035 13.9693 57.1719 13.849C56.9432 13.7288 56.7482 13.5602 56.5869 13.3433C56.4256 13.1263 56.3025 12.8712 56.2175 12.578C56.1324 12.2818 56.0899 11.9608 56.0899 11.6148ZM57.1499 11.5224V11.6148C57.1499 11.8318 57.1689 12.0341 57.207 12.2217C57.2481 12.4094 57.3111 12.575 57.3962 12.7187C57.4812 12.8595 57.5911 12.9709 57.726 13.053C57.8638 13.1321 58.028 13.1717 58.2186 13.1717C58.4591 13.1717 58.657 13.1189 58.8124 13.0134C58.9678 12.9078 59.0895 12.7656 59.1774 12.5868C59.2683 12.405 59.3299 12.2027 59.3621 11.9798V11.1838C59.3445 11.0108 59.3079 10.8495 59.2522 10.7C59.1994 10.5504 59.1276 10.4199 59.0367 10.3085C58.9458 10.1942 58.8329 10.1062 58.698 10.0446C58.5661 9.98013 58.4092 9.94787 58.2274 9.94787C58.0339 9.94787 57.8697 9.98892 57.7348 10.071C57.5999 10.1531 57.4885 10.266 57.4006 10.4097C57.3155 10.5534 57.2525 10.7205 57.2114 10.9111C57.1704 11.1017 57.1499 11.3054 57.1499 11.5224ZM63.4568 14.0294C63.105 14.0294 62.7868 13.9722 62.5024 13.8578C62.2209 13.7406 61.9805 13.5778 61.7811 13.3696C61.5847 13.1615 61.4337 12.9166 61.3281 12.6352C61.2226 12.3537 61.1698 12.0502 61.1698 11.7247V11.5488C61.1698 11.1764 61.224 10.8392 61.3325 10.5372C61.441 10.2352 61.592 9.9772 61.7855 9.76315C61.979 9.54618 62.2078 9.38051 62.4716 9.26616C62.7355 9.15181 63.0214 9.09463 63.3293 9.09463C63.6694 9.09463 63.967 9.15181 64.2221 9.26616C64.4772 9.38051 64.6883 9.54178 64.8554 9.74996C65.0255 9.9552 65.1516 10.2 65.2337 10.4845C65.3187 10.7689 65.3612 11.0826 65.3612 11.4257V11.8787H61.6844V11.1178H64.3145V11.0342C64.3086 10.8436 64.2705 10.6648 64.2001 10.4976C64.1327 10.3305 64.0286 10.1956 63.8878 10.093C63.7471 9.99039 63.5595 9.93908 63.3249 9.93908C63.149 9.93908 62.9921 9.9772 62.8543 10.0534C62.7194 10.1267 62.6065 10.2338 62.5156 10.3745C62.4247 10.5152 62.3544 10.6853 62.3045 10.8847C62.2576 11.0811 62.2341 11.3025 62.2341 11.5488V11.7247C62.2341 11.9329 62.262 12.1264 62.3177 12.3053C62.3763 12.4812 62.4614 12.6352 62.5728 12.7671C62.6842 12.899 62.8191 13.0031 62.9774 13.0794C63.1358 13.1527 63.3161 13.1893 63.5184 13.1893C63.7735 13.1893 64.0007 13.138 64.2001 13.0354C64.3995 12.9328 64.5725 12.7876 64.7191 12.6L65.2777 13.1409C65.175 13.2905 65.0416 13.4342 64.8774 13.572C64.7132 13.7068 64.5124 13.8168 64.2749 13.9018C64.0403 13.9869 63.7676 14.0294 63.4568 14.0294ZM69.0909 12.9562V7.18583H70.1552V13.9414H69.192L69.0909 12.9562ZM65.9946 11.6148V11.5224C65.9946 11.1618 66.0371 10.8334 66.1221 10.5372C66.2071 10.2382 66.3303 9.98159 66.4916 9.76755C66.6528 9.55057 66.8493 9.38491 67.0809 9.27056C67.3126 9.15327 67.5735 9.09463 67.8638 9.09463C68.1511 9.09463 68.4033 9.15034 68.6203 9.26176C68.8372 9.37318 69.022 9.53298 69.1744 9.74116C69.3269 9.94641 69.4486 10.1927 69.5395 10.4801C69.6304 10.7645 69.6949 11.0811 69.733 11.4301V11.7247C69.6949 12.0649 69.6304 12.3757 69.5395 12.6571C69.4486 12.9386 69.3269 13.182 69.1744 13.3872C69.022 13.5925 68.8358 13.7508 68.6159 13.8622C68.3989 13.9737 68.1453 14.0294 67.855 14.0294C67.5676 14.0294 67.3082 13.9693 67.0765 13.849C66.8478 13.7288 66.6528 13.5602 66.4916 13.3433C66.3303 13.1263 66.2071 12.8712 66.1221 12.578C66.0371 12.2818 65.9946 11.9608 65.9946 11.6148ZM67.0545 11.5224V11.6148C67.0545 11.8318 67.0736 12.0341 67.1117 12.2217C67.1528 12.4094 67.2158 12.575 67.3008 12.7187C67.3859 12.8595 67.4958 12.9709 67.6307 13.053C67.7685 13.1321 67.9327 13.1717 68.1233 13.1717C68.3637 13.1717 68.5616 13.1189 68.717 13.0134C68.8724 12.9078 68.9941 12.7656 69.0821 12.5868C69.173 12.405 69.2345 12.2027 69.2668 11.9798V11.1838C69.2492 11.0108 69.2126 10.8495 69.1568 10.7C69.1041 10.5504 69.0322 10.4199 68.9413 10.3085C68.8504 10.1942 68.7376 10.1062 68.6027 10.0446C68.4707 9.98013 68.3139 9.94787 68.1321 9.94787C67.9386 9.94787 67.7744 9.98892 67.6395 10.071C67.5046 10.1531 67.3932 10.266 67.3052 10.4097C67.2202 10.5534 67.1571 10.7205 67.1161 10.9111C67.0751 11.1017 67.0545 11.3054 67.0545 11.5224Z" fill="#4ABFA1"/>
</svg>
