<svg fill="none" height="21" viewBox="0 0 21 21" width="21" xmlns="http://www.w3.org/2000/svg" xmlns:xlink="http://www.w3.org/1999/xlink"><linearGradient id="a"><stop offset="0" stop-color="#d6b174"/><stop offset=".44" stop-color="#f4dfaa"/><stop offset="1" stop-color="#d0a768"/></linearGradient><linearGradient id="b" gradientUnits="userSpaceOnUse" x1="4.52263" x2="4.52263" xlink:href="#a" y1="2.06664" y2="12.2668"/><linearGradient id="c" gradientUnits="userSpaceOnUse" x1="16.4777" x2="16.4777" xlink:href="#a" y1="2.06651" y2="12.2667"/><linearGradient id="d"><stop offset="0" stop-color="#f4dfaa"/><stop offset="1" stop-color="#d0a768"/></linearGradient><linearGradient id="e" gradientUnits="userSpaceOnUse" x1="10.5009" x2="10.5009" xlink:href="#d" y1="12.5385" y2="20.3167"/><linearGradient id="f" gradientUnits="userSpaceOnUse" x1="10.5004" x2="10.5004" xlink:href="#d" y1="19.2013" y2="19.8064"/><linearGradient id="g" gradientUnits="userSpaceOnUse" x1="10.5" x2="10.5" xlink:href="#d" y1="-4.6855" y2="16.1535"/><linearGradient id="h" gradientUnits="userSpaceOnUse" x1="10.5003" x2="10.5003" xlink:href="#d" y1="19.2988" y2="21.1137"/><linearGradient id="i" gradientUnits="userSpaceOnUse" x1="17.1756" x2="11.4055" y1=".041916" y2="15.1177"><stop offset="0" stop-color="#fff"/><stop offset="1" stop-color="#fff"/></linearGradient><clipPath id="j"><path d="m0 0h21v21h-21z"/></clipPath><g clip-path="url(#j)"><path d="m9.04526 11.855h-2.80661c-3.43999 0-6.23865-2.99156-6.23865-6.66864v-1.9728c.00001758-.13641.027419-.27123.0803538-.39535.0529352-.12412.1301702-.23466.2264912-.32414.096321-.08949.209484-.15584.331847-.19457.122363-.03874.251077-.04895.377448-.02996l8.02912 1.20889zm-8.155283-8.6712c-.006486 0-.012711.00273-.017333.00759-.003111.00264-.005603.00602-.00728.00987s-.002492.00806-.002381.0123v1.97432c0 3.1677 2.411067 5.74462 5.374527 5.74462h1.9425v-6.64977l-7.284349-1.09833z" fill="url(#b)"/><path d="m11.9551 11.8855h2.8066c3.44 0 6.2378-2.99151 6.2378-6.66859v-1.9728c0-.13641-.0273-.27125-.0803-.39538-.0529-.12414-.1301-.23468-.2265-.32415-.0963-.08947-.2095-.15579-.3319-.19447-.1224-.03867-.2511-.04881-.3775-.02972l-8.0282 1.20858zm8.1553-8.67085c.0075 0 .0147.0032.0201.0089.0053.00569.0083.01342.0083.02147v1.9728c0 3.16771-2.4111 5.74498-5.3746 5.74498h-1.945v-6.64982l7.2855-1.09681z" fill="url(#c)"/><path d="m12.8341 19.6566c-1.7285-3.7648-1.4404-5.3695-1.4404-5.3695h-1.78589s.28814 1.6047-1.44039 5.3695c-.12588.2734 1.41311.1622 2.33318.072.9204.0902 2.4597.2026 2.3335-.072z" fill="url(#e)"/><path d="m11.4732 19.6566c-.7209-3.7648-.6007-5.3695-.6007-5.3695h-.745s.1202 1.6047-.60103 5.3695c-.05256.2734.58963.1622.97353.072.383.0902 1.0258.2026.9732-.072z" fill="#fff" opacity=".12"/><path d="m13.3755 19.7684h-5.7505c.00008-.1143.04262-.224.11828-.3048.07567-.0808.17826-.1262.28522-.1262h4.9443c.1069.0001.2095.0455.2851.1263s.1181.1904.1181.3047z" fill="url(#f)"/><path d="m3.66544 0c-.26722 1.2031-.40075 2.43569-.39781 3.67222 0 6.17292 3.23938 11.17768 7.23347 11.17768 3.9941 0 7.2335-5.00446 7.2335-11.17768.0018-1.23668-.1329-2.46927-.4012-3.67222z" fill="url(#g)"/><path d="m7.21775 19.707h6.56405c.1589 0 .3162.0335.463.0985s.2802.1602.3925.2803c.1124.1201.2015.2627.2623.4196s.0921.3251.0921.495h-8.98389c0-.3431.12748-.672.35438-.9146.22691-.2425.53466-.3788.85556-.3788z" fill="url(#h)"/><path d="m16.6971 0h-1.2619c.1572.986158.2359 1.98479.2353 2.98516 0 4.97861-1.9013 9.65714-4.6432 11.83494.1255-.014.2498-.0328.3731-.0565 3.211-1.615 5.532-6.2777 5.532-11.77844.0006-1.00037-.0781-1.999002-.2353-2.98516z" fill="url(#i)" opacity=".15"/></g></svg>