<svg width="31" height="43" viewBox="0 0 31 43" fill="none" xmlns="http://www.w3.org/2000/svg">
<path d="M7.5 14H24.29V43.0009L15.8642 37.4734L7.5 43.0009V14Z" fill="#D6D6D4"/>
<path d="M7.5 14H24.29V43.0009L15.8642 37.4734L7.5 43.0009V14Z" fill="#D6D6D4"/>
<circle cx="15.6313" cy="15.1313" r="15.1313" fill="#D37A48"/>
<path d="M14.8942 14.3318H15.7908C16.1395 14.3318 16.4279 14.2716 16.6562 14.1512C16.8887 14.0308 17.0609 13.8648 17.173 13.6531C17.2851 13.4414 17.3411 13.1986 17.3411 12.9247C17.3411 12.6383 17.2892 12.3934 17.1854 12.19C17.0858 11.9824 16.9322 11.8226 16.7247 11.7106C16.5213 11.5985 16.2619 11.5425 15.9464 11.5425C15.6808 11.5425 15.4401 11.5964 15.2242 11.7044C15.0125 11.8081 14.8444 11.9575 14.7199 12.1526C14.5954 12.3436 14.5331 12.5718 14.5331 12.8375H13.0264C13.0264 12.356 13.153 11.9285 13.4062 11.5549C13.6594 11.1814 14.0039 10.8887 14.4397 10.6771C14.8797 10.4612 15.3736 10.3533 15.9215 10.3533C16.5068 10.3533 17.0173 10.4508 17.4532 10.6459C17.8931 10.8369 18.2356 11.1233 18.4805 11.5051C18.7253 11.887 18.8478 12.3602 18.8478 12.9247C18.8478 13.182 18.7876 13.4435 18.6672 13.7091C18.5469 13.9748 18.3684 14.2176 18.1318 14.4376C17.8952 14.6534 17.6005 14.8298 17.2477 14.9668C16.8949 15.0996 16.486 15.166 16.0212 15.166H14.8942V14.3318ZM14.8942 15.5023V14.6804H16.0212C16.5525 14.6804 17.0049 14.7427 17.3784 14.8672C17.7562 14.9917 18.0633 15.164 18.2999 15.384C18.5365 15.5998 18.7087 15.8468 18.8167 16.1249C18.9287 16.403 18.9848 16.6977 18.9848 17.009C18.9848 17.4323 18.908 17.81 18.7544 18.1421C18.605 18.47 18.3912 18.7481 18.1131 18.9764C17.835 19.2047 17.5092 19.3769 17.1356 19.4932C16.7662 19.6094 16.3636 19.6675 15.9278 19.6675C15.5376 19.6675 15.164 19.6135 14.8071 19.5056C14.4501 19.3977 14.1305 19.2379 13.8483 19.0262C13.566 18.8104 13.3419 18.5426 13.1758 18.223C13.014 17.8993 12.933 17.5257 12.933 17.1024H14.4335C14.4335 17.3721 14.4958 17.6108 14.6203 17.8183C14.749 18.0217 14.9274 18.1815 15.1557 18.2978C15.3882 18.414 15.6538 18.4721 15.9527 18.4721C16.2681 18.4721 16.54 18.4161 16.7683 18.304C16.9966 18.1919 17.1709 18.0259 17.2913 17.8059C17.4158 17.5859 17.4781 17.3203 17.4781 17.009C17.4781 16.6561 17.4096 16.3698 17.2726 16.1498C17.1356 15.9298 16.9405 15.7679 16.6873 15.6641C16.4342 15.5562 16.1353 15.5023 15.7908 15.5023H14.8942Z" fill="white"/>
</svg>
