<svg width="33" height="33" viewBox="0 0 33 33" fill="none" xmlns="http://www.w3.org/2000/svg">
<path d="M11 16.5L11 11C11 7.96244 13.4624 5.5 16.5 5.5V5.5C19.5376 5.5 22 7.96244 22 11L22 16.5" stroke="white" stroke-width="1.03125" stroke-linecap="round"/>
<path d="M5.07973 17.4182C5.27921 15.0245 5.37895 13.8276 6.16831 13.1013C6.95768 12.375 8.1587 12.375 10.5607 12.375H22.4393C24.8413 12.375 26.0423 12.375 26.8317 13.1013C27.6211 13.8276 27.7208 15.0245 27.9203 17.4182L28.6268 25.8966C28.7429 27.2902 28.801 27.987 28.3925 28.431C27.984 28.875 27.2847 28.875 25.8863 28.875H7.1137C5.71525 28.875 5.01603 28.875 4.60751 28.431C4.199 27.987 4.25706 27.2902 4.3732 25.8966L5.07973 17.4182Z" stroke="white" stroke-width="1.03125"/>
</svg>
