<svg width="28" height="25" viewBox="0 0 28 25" fill="none" xmlns="http://www.w3.org/2000/svg">
<circle cx="14.1562" cy="6.15625" r="4.64062" stroke="white" stroke-width="1.03125" stroke-linecap="round"/>
<path d="M16.8542 2.48889C17.241 1.81898 17.8177 1.27881 18.5115 0.936676C19.2053 0.594546 19.9849 0.465826 20.7518 0.566794C21.5188 0.667762 22.2385 0.993883 22.8201 1.50392C23.4017 2.01395 23.819 2.68499 24.0192 3.43218C24.2194 4.17936 24.1935 4.96914 23.9449 5.70163C23.6962 6.43413 23.236 7.07644 22.6223 7.54734C22.0086 8.01825 21.269 8.29659 20.4971 8.34719C19.7252 8.39778 18.9557 8.21834 18.2858 7.83157" stroke="white" stroke-width="1.06667"/>
<path d="M11.1849 2.48889C10.7981 1.81898 10.2214 1.27881 9.52758 0.936676C8.83381 0.594546 8.05416 0.465826 7.28724 0.566794C6.52031 0.667762 5.80055 0.993883 5.21896 1.50392C4.63738 2.01395 4.2201 2.68499 4.01989 3.43218C3.81969 4.17936 3.84554 4.96914 4.09419 5.70163C4.34284 6.43413 4.80311 7.07644 5.41681 7.54734C6.0305 8.01825 6.77005 8.29659 7.54194 8.34719C8.31383 8.39778 9.08339 8.21834 9.7533 7.83157" stroke="white" stroke-width="1.06667"/>
<path d="M14.02 13.332C21.2737 13.332 23.1462 19.2025 23.6296 22.2333C23.7842 23.2029 23.0018 23.9987 22.02 23.9987H6.01997C5.03813 23.9987 4.25574 23.2029 4.41038 22.2333C4.89373 19.2025 6.7662 13.332 14.02 13.332Z" stroke="white" stroke-width="1.06667" stroke-linecap="round"/>
<path d="M26.992 18.5169L27.5094 18.3873L26.992 18.5169ZM15.9531 13.4851L15.5593 13.1255L14.8976 13.8501L15.8656 14.0112L15.9531 13.4851ZM23.23 20.4436L22.7177 20.5918L22.8291 20.9769H23.23V20.4436ZM20.2426 12.088C22.2092 12.088 23.5886 13.059 24.5773 14.3758C25.5772 15.7075 26.1549 17.3694 26.4747 18.6465L27.5094 18.3873C27.1746 17.0504 26.5534 15.2311 25.4303 13.7353C24.2959 12.2244 22.6279 11.0214 20.2426 11.0214V12.088ZM16.347 13.8447C17.2917 12.81 18.5451 12.088 20.2426 12.088V11.0214C18.1953 11.0214 16.6697 11.9093 15.5593 13.1255L16.347 13.8447ZM15.8656 14.0112C20.1497 14.7239 21.9501 17.9383 22.7177 20.5918L23.7423 20.2954C22.9224 17.461 20.9107 13.7692 16.0407 12.959L15.8656 14.0112ZM25.3893 19.9102H23.23V20.9769H25.3893V19.9102ZM26.4747 18.6465C26.6343 19.2837 26.1433 19.9102 25.3893 19.9102V20.9769C26.7388 20.9769 27.8608 19.7906 27.5094 18.3873L26.4747 18.6465Z" fill="white"/>
<path d="M12.0862 13.4847L12.1736 14.0108L13.142 13.8499L12.4801 13.1251L12.0862 13.4847ZM1.04763 18.5169L1.56499 18.6465L1.04763 18.5169ZM4.80709 20.4436V20.9769H5.20801L5.31942 20.5918L4.80709 20.4436ZM7.79708 12.088C9.49444 12.088 10.7477 12.8098 11.6924 13.8443L12.4801 13.1251C11.3696 11.9091 9.84415 11.0214 7.79708 11.0214V12.088ZM1.56499 18.6465C1.88481 17.3694 2.46243 15.7075 3.46239 14.3757C4.45108 13.059 5.83046 12.088 7.79708 12.088V11.0214C5.41184 11.0214 3.74382 12.2244 2.60941 13.7353C1.48627 15.2311 0.865092 17.0504 0.530276 18.3873L1.56499 18.6465ZM2.65039 19.9102C1.89634 19.9102 1.4054 19.2837 1.56499 18.6465L0.530276 18.3873C0.178866 19.7906 1.30089 20.9769 2.65039 20.9769V19.9102ZM4.80709 19.9102H2.65039V20.9769H4.80709V19.9102ZM5.31942 20.5918C6.08714 17.9378 7.888 14.7228 12.1736 14.0108L11.9988 12.9586C7.12708 13.768 5.11481 17.4605 4.29476 20.2954L5.31942 20.5918Z" fill="white"/>
</svg>
