<svg width="25" height="26" viewBox="0 0 25 26" fill="none" xmlns="http://www.w3.org/2000/svg">
<path d="M15.6356 24.1408V17.7271C15.6356 17.4436 15.5255 17.1717 15.3294 16.9712C15.1333 16.7708 14.8674 16.6581 14.5901 16.6581H10.4083C10.1311 16.6581 9.86514 16.7708 9.66908 16.9712C9.47302 17.1717 9.36287 17.4436 9.36287 17.7271V24.1408C9.36287 24.4242 9.25274 24.6961 9.05671 24.8965C8.86068 25.097 8.5948 25.2096 8.31755 25.2097L2.04559 25.2105C1.90828 25.2105 1.77232 25.1829 1.64547 25.1292C1.51861 25.0755 1.40335 24.9967 1.30625 24.8975C1.20916 24.7982 1.13214 24.6804 1.07959 24.5507C1.02705 24.421 1 24.282 1 24.1416V11.7874C1 11.6385 1.03043 11.4912 1.08935 11.355C1.14827 11.2188 1.23437 11.0967 1.34214 10.9966L11.796 1.27805C11.9884 1.09914 12.2392 1.00001 12.4992 1C12.7593 0.999991 13.0101 1.09911 13.2025 1.278L23.6578 10.9965C23.7656 11.0967 23.8517 11.2188 23.9106 11.355C23.9696 11.4913 24 11.6385 24 11.7875V24.1416C24 24.282 23.973 24.421 23.9204 24.5507C23.8679 24.6804 23.7908 24.7982 23.6937 24.8975C23.5967 24.9968 23.4814 25.0755 23.3545 25.1292C23.2277 25.1829 23.0917 25.2105 22.9544 25.2105L16.6809 25.2097C16.4037 25.2096 16.1378 25.097 15.9418 24.8966C15.7457 24.6961 15.6356 24.4242 15.6356 24.1408Z" stroke="white" stroke-linecap="round" stroke-linejoin="round"/>
</svg>
