<svg width="67" height="96" viewBox="0 0 67 96" fill="none" xmlns="http://www.w3.org/2000/svg">
<path d="M44.3985 17.9805H22.5755C10.9459 17.9805 1.45312 27.8332 1.45312 39.9036V57.682V62.5539V91.0212C1.45312 92.73 2.81925 94.1479 4.46561 94.1479H62.5084C64.1548 94.1479 65.5209 92.73 65.5209 91.0212V62.5539V57.682V39.9036C65.5209 27.8332 56.0281 17.9805 44.3985 17.9805Z" fill="#CDEDE5" stroke="#4ABFA1" stroke-width="2.84508" stroke-miterlimit="10"/>
<path d="M19.2656 17.9842V8.09516C19.2656 4.64127 21.9979 1.8418 25.2906 1.8418H41.7191C45.0469 1.8418 47.7441 4.67762 47.7441 8.09516V17.9478" stroke="#4ABFA1" stroke-width="2.84508" stroke-miterlimit="10"/>
<path d="M50.6709 58.8499H16.3076C14.381 58.8499 12.8047 57.2138 12.8047 55.2142V38.8173C12.8047 36.8177 14.381 35.1816 16.3076 35.1816H50.6709C52.5975 35.1816 54.1738 36.8177 54.1738 38.8173V55.2142C54.1738 57.2138 52.5975 58.8499 50.6709 58.8499Z" fill="white" stroke="#4ABFA1" stroke-width="2.84508" stroke-miterlimit="10"/>
</svg>
