<svg width="97" height="87" viewBox="0 0 97 87" fill="none" xmlns="http://www.w3.org/2000/svg">
<path d="M44.4933 85.1336C67.9488 85.1336 86.9632 66.4702 86.9632 43.4477C86.9632 20.4251 67.9488 1.76172 44.4933 1.76172C21.0378 1.76172 2.02344 20.4251 2.02344 43.4477C2.02344 66.4702 21.0378 85.1336 44.4933 85.1336Z" stroke="#4ABFA1" stroke-width="3.07715" stroke-miterlimit="10"/>
<path d="M44.463 75.6354C62.573 75.6354 77.2541 61.2253 77.2541 43.4495C77.2541 25.6738 62.573 11.2637 44.463 11.2637C26.353 11.2637 11.6719 25.6738 11.6719 43.4495C11.6719 61.2253 26.353 75.6354 44.463 75.6354Z" fill="#B5E4D9" stroke="#4ABFA1" stroke-width="3.07715" stroke-miterlimit="10"/>
<path d="M67.1621 79.1631C82.3402 79.1631 94.6445 67.0859 94.6445 52.188C94.6445 37.2901 82.3402 25.2129 67.1621 25.2129C51.984 25.2129 39.6797 37.2901 39.6797 52.188C39.6797 67.0859 51.984 79.1631 67.1621 79.1631Z" fill="white" stroke="#4ABFA1" stroke-width="3.07715" stroke-miterlimit="10"/>
<path d="M40.9219 60.8268L87.9236 34.2012" stroke="#4ABFA1" stroke-width="3.07715" stroke-miterlimit="10"/>
<path d="M46.3594 70.1002L93.3611 43.4746" stroke="#4ABFA1" stroke-width="3.07715" stroke-miterlimit="10"/>
</svg>
