<svg fill="none" height="21" viewBox="0 0 23 21" width="23" xmlns="http://www.w3.org/2000/svg" xmlns:xlink="http://www.w3.org/1999/xlink"><linearGradient id="a"><stop offset="0" stop-color="#e58e06"/><stop offset=".17" stop-color="#f3b225"/><stop offset=".32" stop-color="#fcc838"/><stop offset=".41" stop-color="#ffd03f"/><stop offset=".53" stop-color="#fcca3a"/><stop offset=".7" stop-color="#f5b82a"/><stop offset=".89" stop-color="#e89c12"/><stop offset="1" stop-color="#df8800"/></linearGradient><linearGradient id="b" gradientUnits="userSpaceOnUse" x1="4.95334" x2="4.95334" xlink:href="#a" y1=".428226" y2="12.984"/><linearGradient id="c" gradientUnits="userSpaceOnUse" x1="18.0471" x2="18.0471" xlink:href="#a" y1=".428136" y2="12.9839"/><linearGradient id="d"><stop offset=".11" stop-color="#e58e06"/><stop offset=".13" stop-color="#e7940b"/><stop offset=".19" stop-color="#f2ae22"/><stop offset=".26" stop-color="#f9c132"/><stop offset=".33" stop-color="#fecc3c"/><stop offset=".41" stop-color="#ffd03f"/><stop offset=".53" stop-color="#fcca3a"/><stop offset=".7" stop-color="#f5b82a"/><stop offset=".89" stop-color="#e89c12"/><stop offset="1" stop-color="#df8800"/></linearGradient><linearGradient id="e" gradientUnits="userSpaceOnUse" x1="11.4992" x2="11.4992" xlink:href="#d" y1="12.5383" y2="20.3163"/><linearGradient id="f" gradientUnits="userSpaceOnUse" x1="11.5007" x2="11.5007" xlink:href="#d" y1="19.2012" y2="19.8062"/><linearGradient id="g" gradientUnits="userSpaceOnUse" x1="11.5007" x2="11.5007" xlink:href="#d" y1="-4.68551" y2="16.1535"/><linearGradient id="h" gradientUnits="userSpaceOnUse" x1="11.5008" x2="11.5008" xlink:href="#d" y1="19.2984" y2="21.1132"/><linearGradient id="i" gradientUnits="userSpaceOnUse" x1="18.8106" x2="13.428" y1=".041888" y2="15.445"><stop offset="0" stop-color="#fff"/><stop offset="1" stop-color="#fff"/></linearGradient><path d="m9.90667 11.8548h-3.07383c-3.76749 0-6.83284-2.99141-6.83284-6.66858v-1.97278c-.00000522-.1364.0299884-.27122.0879543-.39534.0579657-.12412.1425537-.23465.2480487-.32413.105494-.08948.229438-.15581.363457-.19452.134018-.03872.27499-.0489.41339-.02988l8.79382 1.20875zm-8.930035-8.67095c-.007092.00004-.013897.00273-.019019.00752-.003323.00267-.005976.00605-.007758.00988-.001781.00382-.002644.00799-.002523.01219v1.97278c0 3.16774 2.640515 5.74398 5.885505 5.74398h2.12753v-6.64897l-7.979366-1.09563z" fill="url(#b)"/><path d="m13.0938 11.8856h3.0738c3.7677 0 6.8328-2.9917 6.8328-6.66861v-1.97278c0-.13641-.03-.27123-.0879-.39535-.058-.12412-.1426-.23465-.2481-.32413-.1055-.08947-.2294-.15581-.3634-.19452-.1341-.03871-.275-.0489-.4134-.02988l-8.7938 1.20875zm8.9308-8.67099c.0078.00038.0152.00364.0207.00913s.0086.0128.0088.02047v1.97303c0 3.16773-2.6408 5.74396-5.8855 5.74396h-2.1283v-6.64921l7.9794-1.09688z" fill="url(#c)"/><path d="m14.0547 19.6566c-1.8929-3.7647-1.5776-5.3695-1.5776-5.3695h-1.9561s.3157 1.6053-1.57748 5.3695c-.13801.2744 1.54768.1621 2.55568.0718 1.0078.0903 2.6935.2026 2.5555-.0718z" fill="url(#e)"/><path d="m12.5671 19.6566c-.7898-3.7647-.6582-5.3695-.6582-5.3695h-.816s.1316 1.6053-.6579 5.3695c-.0576.2744.6456.1621 1.066.0718.4202.0903 1.1237.2026 1.0661-.0718z" fill="#fff" opacity=".12"/><path d="m8.79336 19.3374h5.41464c.058 0 .1155.0111.1691.0327.0536.0217.1024.0534.1434.0934.0411.04.0736.0875.0959.1398.0222.0523.0337.1084.0337.165h-6.29854c.00007-.1143.04665-.2239.12949-.3047.08285-.0808.19518-.1262.31231-.1262z" fill="url(#f)"/><path d="m4.01635 0c-.29348 1.20298-.44056 2.43555-.4382 3.67215 0 6.17293 3.54673 11.17725 7.92255 11.17725 4.3759 0 7.9223-5.00432 7.9223-11.17725.0025-1.23659-.1445-2.46916-.4379-3.67215z" fill="url(#g)"/><path d="m7.90547 19.7065h7.19033c.3515 0 .6885.1363.937.3788.2485.2426.3882.5715.3882.9145h-9.84092c0-.343.13961-.6719.38812-.9145.24851-.2425.58557-.3788.93702-.3788z" fill="url(#h)"/><path d="m18.2865 0h-1.3822c.1722.986063.2581 1.98461.2571 2.98488 0 4.97848-2.0818 9.65692-5.0852 11.83492.137-.014.2732-.0329.4084-.0564 3.5176-1.6149 6.0597-6.27756 6.0597-11.77852.0008-1.00029-.0854-1.998838-.2578-2.98488z" fill="url(#i)" opacity=".15"/></svg>