<svg width="35" height="36" viewBox="0 0 35 36" fill="none" xmlns="http://www.w3.org/2000/svg">
<path d="M30.9907 9.00103H10V32.3338C10 33.8064 11.198 35 12.6762 35H12.7599C14.3683 35 15.6728 33.6777 15.6728 32.0475V29.9127H31L30.9907 9V9.00103ZM15.8547 12.0833H18.751V12.7877H16.5793V13.6744H18.6745V14.352H16.5793V15.2222H18.751V15.9379H15.8547V12.0833ZM11.8999 12.0957H12.5066L14.452 14.5487V12.0957H15.3027V16.0522H14.7352V16.0574L12.7496 13.453V16.0522H11.8988V12.0957H11.8999ZM19.6224 25.9447H12.2937V21.0531H19.6224V25.9447ZM23.5896 16.0522H22.9539L22.4598 14.8092L22.0402 13.5601L21.6257 14.8206L21.1429 16.0533H20.5072L19.0498 12.0967H19.8891L20.8256 14.9514L21.79 12.0967H22.2779L23.2713 14.9514L24.1788 12.0967H25.0182L23.5886 16.0533L23.5896 16.0522ZM26.856 16.0368C26.0653 16.0368 25.4575 15.7948 25.1701 15.0894L25.7779 14.7753C25.9495 15.1995 26.3971 15.3859 26.8664 15.3859C27.3356 15.3859 27.7563 15.2263 27.7563 14.8082C27.7563 14.4447 27.3749 14.2964 26.8612 14.2408C26.0704 14.1471 25.3417 13.938 25.3417 13.073C25.3417 12.28 26.1263 11.9556 26.8395 11.9494C27.4421 11.9494 28.0665 12.1204 28.359 12.7146L27.7791 13.0122C27.6468 12.7918 27.2819 12.5828 26.8612 12.5828C26.3196 12.5828 26.0601 12.8083 26.0601 13.0946C26.0601 13.4303 26.4581 13.524 26.9222 13.5796C27.7295 13.6785 28.481 13.8876 28.481 14.8072C28.481 15.6661 27.7181 16.0347 26.856 16.0347V16.0368Z" fill="#F8C34B"/>
<path d="M29.5 26V7H8V30.5C8 31.5 8.6 33.5 11 33.5M11 33.5C13.4 33.5 14 31.5 14 30.5V28H33V31.5C33 32.1667 32.6 33.5 31 33.5C29.4 33.5 17 33.5 11 33.5Z" stroke="#343A40"/>
<path d="M5.5 7C5.5 6.72386 5.27614 6.5 5 6.5C4.72386 6.5 4.5 6.72386 4.5 7L5.5 7ZM4.5 7L4.5 29L5.5 29L5.5 7L4.5 7Z" fill="#343A40"/>
<line x1="2.5" y1="4" x2="2.5" y2="30" stroke="#343A40"/>
<line x1="22.5" y1="4" x2="22.5" y2="7" stroke="#343A40"/>
<line x1="23" y1="3.5" x2="2" y2="3.5" stroke="#343A40"/>
<path d="M27 20L21 20" stroke="#343A40" strokeWidth="0.6" strokeLinecap="round"/>
<path d="M27 22.5L21 22.5" stroke="#343A40" strokeWidth="0.6" strokeLinecap="round"/>
<path d="M27 25L21 25" stroke="#343A40" strokeWidth="0.6" strokeLinecap="round"/>
<line x1="8" y1="29.5" x2="2" y2="29.5" stroke="#343A40"/>
<rect x="11.3" y="20.3" width="7.4" height="4.4" stroke="#343A40" strokeWidth="0.6"/>
<path d="M27.626 17.311H27.2037V17H27.626V17.311ZM26.7814 17.311H26.359V17H26.7814V17.311ZM25.9367 17.311H25.5144V17H25.9367V17.311ZM25.0921 17.311H24.6697V17H25.0921V17.311ZM24.2474 17.311H23.8251V17H24.2474V17.311ZM23.4028 17.311H22.9804V17H23.4028V17.311ZM22.5581 17.311H22.1358V17H22.5581V17.311ZM21.7135 17.311H21.2911V17H21.7135V17.311ZM20.8688 17.311H20.4465V17H20.8688V17.311ZM20.0242 17.311H19.6018V17H20.0242V17.311ZM19.1795 17.311H18.7572V17H19.1795V17.311ZM18.3349 17.311H17.9125V17H18.3349V17.311ZM17.4902 17.311H17.0679V17H17.4902V17.311ZM16.6456 17.311H16.2232V17H16.6456V17.311ZM15.8009 17.311H15.3786V17H15.8009V17.311ZM14.9563 17.311H14.5339V17H14.9563V17.311ZM14.1116 17.311H13.6893V17H14.1116V17.311ZM13.267 17.311H12.8446V17H13.267V17.311ZM12.4223 17.311H12V17H12.4223V17.311Z" fill="black"/>
</svg>
