<svg width="42" height="42" viewBox="0 0 42 42" fill="none" xmlns="http://www.w3.org/2000/svg">
<g clip-path="url(#clip0_7944_11740)">
<path d="M35.4375 13.125H6.5625C5.83763 13.125 5.25 13.7126 5.25 14.4375V19.6875C5.25 20.4124 5.83763 21 6.5625 21H35.4375C36.1624 21 36.75 20.4124 36.75 19.6875V14.4375C36.75 13.7126 36.1624 13.125 35.4375 13.125Z" stroke="#343A40" stroke-linecap="round" stroke-linejoin="round"/>
<path d="M34.125 21V32.8125C34.125 33.1606 33.9867 33.4944 33.7406 33.7406C33.4944 33.9867 33.1606 34.125 32.8125 34.125H9.1875C8.8394 34.125 8.50556 33.9867 8.25942 33.7406C8.01328 33.4944 7.875 33.1606 7.875 32.8125V21" stroke="#343A40" stroke-linecap="round" stroke-linejoin="round"/>
<path d="M21 13.125V34.125" stroke="#F29774" stroke-linecap="round" stroke-linejoin="round"/>
<path d="M28.4246 11.269C26.5685 13.1251 21 13.1251 21 13.1251C21 13.1251 21 7.55666 22.8562 5.70051C23.5947 4.96278 24.596 4.54853 25.6399 4.54883C26.6838 4.54913 27.6849 4.96395 28.423 5.7021C29.1612 6.44024 29.576 7.44131 29.5763 8.48521C29.5766 9.52911 29.1624 10.5304 28.4246 11.269V11.269Z" stroke="#F29774" stroke-linecap="round" stroke-linejoin="round"/>
<path d="M13.5755 11.269C15.4317 13.1251 21.0001 13.1251 21.0001 13.1251C21.0001 13.1251 21.0001 7.55666 19.144 5.70051C18.4054 4.96278 17.4041 4.54853 16.3602 4.54883C15.3163 4.54913 14.3152 4.96395 13.5771 5.7021C12.8389 6.44024 12.4241 7.44131 12.4238 8.48521C12.4235 9.52911 12.8378 10.5304 13.5755 11.269V11.269Z" stroke="#F29774" stroke-linecap="round" stroke-linejoin="round"/>
</g>
<defs>
<clipPath id="clip0_7944_11740">
<rect width="42" height="42" fill="white"/>
</clipPath>
</defs>
</svg>
