<svg width="27" height="27" viewBox="0 0 27 27" fill="none" xmlns="http://www.w3.org/2000/svg">
<path d="M22.7813 8.4375H4.21875C3.75276 8.4375 3.375 8.81526 3.375 9.28125V12.6563C3.375 13.1222 3.75276 13.5 4.21875 13.5H22.7813C23.2472 13.5 23.625 13.1222 23.625 12.6563V9.28125C23.625 8.81526 23.2472 8.4375 22.7813 8.4375Z" stroke="#868E96" stroke-linecap="round" stroke-linejoin="round"/>
<path d="M21.9375 13.5V21.0938C21.9375 21.3175 21.8486 21.5321 21.6904 21.6904C21.5321 21.8486 21.3175 21.9375 21.0938 21.9375H5.90625C5.68247 21.9375 5.46786 21.8486 5.30963 21.6904C5.15139 21.5321 5.0625 21.3175 5.0625 21.0938V13.5" stroke="#868E96" stroke-linecap="round" stroke-linejoin="round"/>
<path d="M13.5 8.4375V21.9375" stroke="#868E96" stroke-linecap="round" stroke-linejoin="round"/>
<path d="M18.273 7.2443C17.0797 8.43754 13.5 8.43754 13.5 8.43754C13.5 8.43754 13.5 4.85782 14.6932 3.66457C15.168 3.19032 15.8117 2.92402 16.4828 2.92421C17.1539 2.9244 17.7974 3.19107 18.272 3.66559C18.7465 4.14012 19.0131 4.78366 19.0133 5.45474C19.0135 6.12582 18.7472 6.76951 18.273 7.2443V7.2443Z" stroke="#868E96" stroke-linecap="round" stroke-linejoin="round"/>
<path d="M8.727 7.2443C9.92024 8.43754 13.5 8.43754 13.5 8.43754C13.5 8.43754 13.5 4.85782 12.3067 3.66457C11.8319 3.19032 11.1882 2.92402 10.5172 2.92421C9.84608 2.9244 9.20254 3.19107 8.72802 3.66559C8.25349 4.14012 7.98682 4.78366 7.98663 5.45474C7.98644 6.12582 8.25275 6.76951 8.727 7.2443V7.2443Z" stroke="#868E96" stroke-linecap="round" stroke-linejoin="round"/>
</svg>
