<svg width="27" height="27" viewBox="0 0 27 27" fill="none" xmlns="http://www.w3.org/2000/svg">
<path d="M12.8672 12.9547L12.7607 23.2666" stroke="#868E96" stroke-linecap="round" stroke-linejoin="round"/>
<path d="M21.9884 17.7021V8.20731C21.9884 8.06522 21.9507 7.92567 21.8791 7.80294C21.8075 7.68021 21.7045 7.57869 21.5808 7.50877L13.1557 2.74672C13.0352 2.67863 12.8992 2.64286 12.7608 2.64286C12.6225 2.64286 12.4865 2.67863 12.366 2.74672L3.94084 7.50877C3.81713 7.57869 3.71422 7.68021 3.64261 7.80294C3.571 7.92567 3.53326 8.06522 3.53326 8.20731V17.7021C3.53326 17.8442 3.571 17.9838 3.64261 18.1065C3.71422 18.2292 3.81713 18.3308 3.94084 18.4007L12.366 23.1627C12.4865 23.2308 12.6225 23.2666 12.7608 23.2666C12.8992 23.2666 13.0352 23.2308 13.1557 23.1627L21.5808 18.4007C21.7045 18.3308 21.8075 18.2292 21.8791 18.1065C21.9507 17.9838 21.9884 17.8442 21.9884 17.7021V17.7021Z" stroke="#868E96" stroke-linecap="round" stroke-linejoin="round"/>
<path d="M21.8786 7.80193L12.8673 12.9546L3.64386 7.80082" stroke="#868E96" stroke-linecap="round" stroke-linejoin="round"/>
<path d="M17.6888 15.012V10.1976L8.38312 4.99783" stroke="#868E96" stroke-linecap="round" stroke-linejoin="round"/>
<g clip-path="url(#clip0_5565_10761)">
<path d="M23.081 15.2883L23.0807 15.2883C22.7315 15.2765 22.3825 15.3524 22.061 15.5121C21.7393 15.6719 21.4526 15.9121 21.226 16.2164L20.7975 16.7918L20.406 16.1906C20.126 15.7606 19.7314 15.4434 19.283 15.2767C18.8351 15.1102 18.3504 15.0998 17.895 15.2471C17.439 15.3946 17.0301 15.6949 16.7304 16.1129C16.4305 16.5313 16.2573 17.0441 16.2399 17.5788L23.081 15.2883ZM23.081 15.2883C23.6766 15.3082 24.2476 15.5816 24.6659 16.0622C25.0854 16.544 25.3149 17.1938 25.2939 17.8702L23.081 15.2883ZM20.5701 23.8137C21.3804 23.3306 22.1463 22.7636 22.8568 22.1206C24.4806 20.6447 25.2505 19.2136 25.2939 17.8703L20.5701 23.8137ZM20.5701 23.8137C20.2836 23.6204 19.2783 22.913 18.3042 21.8832C17.1791 20.6939 16.1888 19.1725 16.2399 17.5789L20.5701 23.8137Z" fill="#868E96" stroke="white"/>
</g>
<defs>
<clipPath id="clip0_5565_10761">
<rect width="11.9213" height="12.8384" fill="white" transform="translate(15.0851 12.9214) rotate(1.84072)"/>
</clipPath>
</defs>
</svg>
