<svg width="15" height="15" viewBox="0 0 15 15" fill="none" xmlns="http://www.w3.org/2000/svg">
<g clip-path="url(#clip0_7379_11076)">
<path d="M7.50018 15.0004C11.6424 15.0004 15.0004 11.6424 15.0004 7.50018C15.0004 3.35795 11.6424 0 7.50018 0C3.35795 0 0 3.35795 0 7.50018C0 11.6424 3.35795 15.0004 7.50018 15.0004Z" fill="#EE4D2D"/>
<path d="M7.47612 2.74429C7.45141 2.7439 7.4271 2.74429 7.40278 2.74546C6.53217 2.7886 5.65372 3.71412 5.61842 5.40435H3.59877C3.4419 5.40435 3.31641 5.52985 3.31641 5.68671L3.69289 11.3849C3.69289 11.5418 4.1125 12.2594 4.77527 12.2555H10.2578C11.2186 12.1065 11.3401 11.3025 11.3401 11.1457L11.6852 5.68671C11.6813 5.52985 11.5519 5.40435 11.395 5.40435H9.37538C9.15498 3.44391 8.23888 2.7537 7.47612 2.74429ZM7.48318 3.21528C8.03495 3.22469 8.71066 3.79726 8.90086 5.40435H6.09295C6.12432 4.02393 6.79884 3.24744 7.43023 3.21606C7.44749 3.21528 7.46514 3.21489 7.48318 3.21528ZM7.50906 6.36281C7.92868 6.35771 8.35026 6.49262 8.61065 6.79262C8.81066 7.02008 8.47732 7.35734 8.27731 7.12597C7.90475 6.6985 7.01846 6.75733 6.68119 7.19656C6.20275 7.82794 6.92042 8.16521 7.42239 8.31815C8.1126 8.526 8.87733 8.91032 9.00282 9.69858C9.10478 10.3378 8.61065 10.93 7.99887 11.0476C7.34396 11.1731 6.5008 10.9535 6.04196 10.4633C5.83412 10.2398 6.16746 9.90643 6.3753 10.13C6.68512 10.4633 7.23415 10.6162 7.68122 10.6045C8.25378 10.5927 8.75968 10.0711 8.4381 9.49073C7.99103 8.68679 6.8812 8.91425 6.31256 8.28286C5.85372 7.77304 6.06942 6.97302 6.6106 6.61615C6.85767 6.45497 7.18278 6.36673 7.50906 6.36281Z" fill="white"/>
</g>
<defs>
<clipPath id="clip0_7379_11076">
<rect width="15" height="15" fill="white"/>
</clipPath>
</defs>
</svg>
