<svg width="34" height="34" viewBox="0 0 34 34" fill="none" xmlns="http://www.w3.org/2000/svg">
<g clip-path="url(#clip0_7944_11702)">
<path d="M11.9294 33.0006C10.7093 33.0043 9.5174 32.6288 8.51377 31.9248C6.04339 30.1924 4.18055 27.7069 3.19509 24.8282C2.72381 24.6924 2.30273 24.418 1.98499 24.0395C1.66725 23.6611 1.4671 23.1956 1.40979 22.7018L1.09365 21.2359C0.783702 19.8141 1.25482 18.7194 2.33343 18.2727C2.36483 18.2177 2.41164 18.1733 2.46794 18.1453C2.52423 18.1173 2.58746 18.1069 2.64958 18.1155C2.69815 18.1163 2.74607 18.1269 2.79055 18.1467C2.83503 18.1665 2.87517 18.1951 2.90864 18.2308C2.94211 18.2666 2.96824 18.3087 2.98549 18.3548C3.00274 18.4009 3.01077 18.45 3.00912 18.4992H2.63718L3.00912 18.5307V18.8201L2.73017 18.9396C1.53377 19.2856 1.73214 20.6949 1.81892 21.0724L2.13507 22.5382C2.23425 22.9849 2.5566 24.0355 3.50503 24.1173H3.75299L3.82738 24.3564C4.7434 27.1654 6.5366 29.5949 8.93529 31.2768C9.81516 31.8914 10.8581 32.2205 11.9263 32.2205C12.9944 32.2205 14.0374 31.8914 14.9173 31.2768C17.3159 29.5963 19.1074 27.1661 20.019 24.3564L20.1058 24.0922H20.3909C21.4137 24.0922 21.7609 22.9786 21.8663 22.5005L22.1824 21.0346C22.309 20.5586 22.2829 20.0539 22.108 19.5939C22.0246 19.3989 21.8938 19.2286 21.728 19.0988C21.5621 18.969 21.3666 18.8839 21.1596 18.8515L20.8868 18.8075V18.5181C20.8799 18.4166 20.9123 18.3164 20.9772 18.2388C21.042 18.1613 21.1342 18.1125 21.234 18.1029C21.3097 18.0964 21.3855 18.114 21.4509 18.1532C21.7508 18.2239 22.0305 18.3641 22.2682 18.5627C22.5059 18.7613 22.695 19.0131 22.8209 19.2982C23.0553 19.899 23.0965 20.5596 22.9387 21.1856L22.6225 22.6515C22.3498 23.9097 21.6307 24.7024 20.6761 24.8157C19.6878 27.6791 17.8299 30.1506 15.3698 31.8745C14.3647 32.6006 13.1631 32.9939 11.9294 33.0006Z" fill="#751A9F"/>
<path d="M17.5212 8.00547L16.7835 7.92997C16.8031 7.75871 16.8135 7.58649 16.8145 7.41409C16.8145 6.11095 16.3044 4.86119 15.3965 3.93974C14.4886 3.01828 13.2572 2.50061 11.9732 2.50061C10.6891 2.50061 9.45772 3.01828 8.54979 3.93974C7.64186 4.86119 7.13179 6.11095 7.13179 7.41409C7.12257 7.57963 7.12257 7.74556 7.13179 7.9111L6.38792 7.98659C6.37851 7.79588 6.37851 7.6048 6.38792 7.41409C6.38792 5.9124 6.97571 4.47221 8.02198 3.41035C9.06825 2.3485 10.4873 1.75195 11.967 1.75195C13.4466 1.75195 14.8657 2.3485 15.9119 3.41035C16.9582 4.47221 17.546 5.9124 17.546 7.41409C17.5503 7.61155 17.542 7.80909 17.5212 8.00547Z" fill="#751A9F"/>
<path d="M3.03324 18.6436L2.28937 18.6059C2.28937 18.285 1.89264 10.6097 7.46547 6.97962C8.15975 6.52665 11.8605 4.41279 16.5283 7.02995C22.0206 10.7041 21.6486 18.285 21.63 18.6122H20.8862V18.5807C20.8862 18.48 21.2457 11.0815 16.1378 7.66537C11.8667 5.26211 8.50069 7.19353 7.8684 7.60246C2.6675 11.006 3.02704 18.4926 3.03324 18.5681V18.6436Z" fill="#751A9F"/>
<path d="M20.8741 14.9886C20.7848 14.9888 20.6986 14.9551 20.6324 14.8943C11.1418 6.38219 3.63491 14.5168 3.31877 14.8943C3.2858 14.931 3.24602 14.9608 3.20169 14.982C3.15737 15.0032 3.10938 15.0153 3.06045 15.0176C3.01152 15.0199 2.96262 15.0125 2.91653 14.9956C2.87045 14.9788 2.82808 14.9529 2.79186 14.9194C2.75563 14.886 2.72626 14.8456 2.7054 14.8006C2.68455 14.7556 2.67264 14.7069 2.67033 14.6573C2.66803 14.6076 2.67539 14.558 2.69199 14.5112C2.70858 14.4644 2.73409 14.4214 2.76706 14.3847C2.84765 14.2903 11.0922 5.36301 21.1221 14.3532C21.1568 14.3883 21.1843 14.43 21.203 14.4758C21.2218 14.5217 21.2315 14.5709 21.2315 14.6206C21.2315 14.6703 21.2218 14.7195 21.203 14.7654C21.1843 14.8112 21.1568 14.8529 21.1221 14.888C21.0556 14.9532 20.9666 14.9893 20.8741 14.9886Z" fill="#751A9F"/>
<path d="M18.9781 10.3403C18.9071 10.3407 18.8378 10.3187 18.7797 10.2773C16.7742 8.96063 14.4421 8.24761 12.0537 8.22089C9.66527 8.19417 7.31827 8.85484 5.28464 10.1263C5.19876 10.1782 5.09636 10.194 4.99916 10.1706C4.90195 10.1471 4.81758 10.0861 4.76393 10.0005C4.71081 9.91733 4.69147 9.81651 4.70996 9.71917C4.72845 9.62184 4.78333 9.53554 4.86312 9.47835C4.9313 9.42802 11.7377 4.80394 19.1516 9.61676C19.2326 9.6519 19.2986 9.71503 19.338 9.79493C19.3773 9.87482 19.3875 9.96629 19.3667 10.0531C19.3459 10.1399 19.2954 10.2164 19.2242 10.2689C19.1531 10.3215 19.0659 10.3468 18.9781 10.3403Z" fill="#751A9F"/>
<path d="M3.36963 20.915C3.30986 20.914 3.25118 20.8987 3.19838 20.8702C3.14558 20.8418 3.10017 20.8011 3.06588 20.7514C2.63584 20.1198 2.36937 19.3885 2.29102 18.6249C2.29102 18.5754 2.30064 18.5263 2.31933 18.4805C2.33802 18.4347 2.36542 18.3931 2.39995 18.358C2.43449 18.323 2.47549 18.2952 2.52062 18.2762C2.56574 18.2572 2.61411 18.2475 2.66295 18.2475C2.73533 18.2474 2.80614 18.2689 2.8667 18.3091C2.92726 18.3493 2.97494 18.4066 3.00389 18.4739C3.15634 17.4806 3.57453 16.5487 4.21288 15.7799C4.85124 15.0111 5.68526 14.4349 6.62407 14.1141L6.73565 14.0638C10.6968 12.6986 11.6266 10.8112 11.6328 10.7923C11.6556 10.7453 11.6877 10.7036 11.727 10.6696C11.7663 10.6357 11.812 10.6102 11.8614 10.5949C11.9108 10.5796 11.9627 10.5747 12.014 10.5805C12.0653 10.5863 12.1149 10.6027 12.1597 10.6287C12.204 10.6491 12.2438 10.6781 12.2768 10.7142C12.3099 10.7503 12.3355 10.7927 12.3523 10.839C12.369 10.8853 12.3765 10.9344 12.3743 10.9837C12.3721 11.0329 12.3603 11.0812 12.3395 11.1257C12.2961 11.2138 11.3105 13.3088 7.027 14.7873L6.92781 14.825C5.8134 15.2185 4.87809 16.01 4.29637 17.0518C3.71466 18.0937 3.52627 19.3147 3.76636 20.4871C3.78368 20.5729 3.7716 20.662 3.73214 20.7398C3.69268 20.8176 3.6282 20.8794 3.5494 20.915C3.49015 20.9279 3.42888 20.9279 3.36963 20.915Z" fill="#751A9F"/>
<path d="M20.5701 20.9153C20.5352 20.9218 20.4995 20.9218 20.4647 20.9153C20.3737 20.8901 20.2959 20.8302 20.2473 20.7482C20.1988 20.6661 20.1834 20.5682 20.2043 20.4749C20.4444 19.3025 20.256 18.0814 19.6743 17.0396C19.0926 15.9977 18.1573 15.2062 17.0429 14.8128L16.9251 14.7625C12.6602 13.2966 11.6684 11.2016 11.6312 11.1135C11.6103 11.0685 11.5984 11.0198 11.5961 10.9701C11.5938 10.9204 11.6013 10.8707 11.618 10.8239C11.6347 10.7772 11.6603 10.7342 11.6935 10.6975C11.7266 10.6609 11.7665 10.6312 11.811 10.6102C11.901 10.5707 12.0024 10.5676 12.0946 10.6015C12.1868 10.6354 12.2628 10.7038 12.3069 10.7927C12.3069 10.8304 13.2615 12.6801 17.1792 14.0578L17.3218 14.1145C18.2547 14.4358 19.0835 15.0092 19.7192 15.773C20.3549 16.5368 20.7734 17.462 20.9296 18.4491C20.972 18.3681 21.0415 18.3052 21.1257 18.2717C21.2098 18.2382 21.303 18.2364 21.3883 18.2667C21.4802 18.302 21.5546 18.3727 21.5952 18.4635C21.6359 18.5543 21.6395 18.6577 21.6053 18.7511L20.9172 20.6385C20.8952 20.7157 20.8499 20.784 20.7876 20.8337C20.7253 20.8833 20.6492 20.9119 20.5701 20.9153Z" fill="#751A9F"/>
<ellipse cx="7.11053" cy="24.3849" rx="0.407407" ry="0.410256" fill="#FFC8C8"/>
<ellipse cx="14.4445" cy="24.3849" rx="0.407407" ry="0.410256" fill="#FFC8C8"/>
<ellipse cx="7.92499" cy="27.6661" rx="0.407407" ry="0.410256" fill="#FFC8C8"/>
<ellipse cx="16.8898" cy="25.2052" rx="0.407407" ry="0.410256" fill="#FFC8C8"/>
<ellipse cx="9.1488" cy="25.6154" rx="0.814815" ry="0.820513" fill="#FFC8C8"/>
<ellipse cx="15.8148" cy="26.8205" rx="0.814815" ry="0.820513" fill="#FFC8C8"/>
<g clip-path="url(#clip1_7944_11702)">
<path d="M17.7046 22.4559C17.1411 22.5372 16.7186 23.4141 15.0924 23.1539C14.4693 22.9911 13.9261 22.7919 13.4087 22.4559C12.948 22.1649 12.7534 21.9942 12.2851 21.769C11.8167 21.5438 11.4319 21.769 11.4319 21.769C9.9639 22.7289 10.2624 23.1539 8.71771 23.1539C8.12476 23.1539 7.33895 23.033 6.83286 22.7905C6.13037 22.4475 5.53364 22.5411 5.59407 23.4141C5.66923 24.5001 6.00094 26.5001 7.50094 28.5001C9.77872 31.3194 10.5387 28.9245 11.0009 28.0001C11.5009 27.0001 12.5547 27.0598 13.1607 28.7109C14.0009 31.0001 15.5009 29.5001 16.5009 28.2593C17.5009 27.0185 18.4477 24.9777 18.5195 23.5642C18.5572 22.8609 18.3727 22.3595 17.7046 22.4559Z" stroke="#C780E8" stroke-width="0.5" stroke-miterlimit="10"/>
</g>
</g>
<path d="M13.4648 7.16855V18.1769L22.8606 23.6827L32.2595 18.1769V7.16855L22.8606 1.66602L13.4648 7.16855Z" fill="white" stroke="#751A9F" stroke-miterlimit="10"/>
<path d="M22.8613 1.66602V23.6794" stroke="#751A9F" stroke-width="0.1" stroke-miterlimit="10"/>
<path d="M13.4844 7.17773L32.2598 18.1763" stroke="#751A9F" stroke-width="0.1" stroke-miterlimit="10"/>
<path d="M13.875 17.9161L32.073 7.23047" stroke="#751A9F" stroke-width="0.1" stroke-miterlimit="10"/>
<path d="M22.86 3.75L31.1274 7.81638L31.0857 17.4881L22.86 20.48L17.4586 15.8718L17.0098 9.27007L22.86 3.75Z" fill="url(#paint0_linear_7944_11702)"/>
<path d="M22.8219 4.49726C23.1388 4.49726 23.3957 4.23663 23.3957 3.91513C23.3957 3.59363 23.1388 3.33301 22.8219 3.33301C22.5049 3.33301 22.248 3.59363 22.248 3.91513C22.248 4.23663 22.5049 4.49726 22.8219 4.49726Z" fill="#751A9F"/>
<path d="M31.0054 8.35565C31.3224 8.35565 31.5793 8.09503 31.5793 7.77353C31.5793 7.45203 31.3224 7.19141 31.0054 7.19141C30.6885 7.19141 30.4316 7.45203 30.4316 7.77353C30.4316 8.09503 30.6885 8.35565 31.0054 8.35565Z" fill="#751A9F"/>
<path d="M30.9234 17.9455C31.2403 17.9455 31.4972 17.6849 31.4972 17.3634C31.4972 17.0419 31.2403 16.7812 30.9234 16.7812C30.6065 16.7812 30.3496 17.0419 30.3496 17.3634C30.3496 17.6849 30.6065 17.9455 30.9234 17.9455Z" fill="#751A9F"/>
<path d="M22.8609 21.0617C23.1778 21.0617 23.4347 20.8011 23.4347 20.4796C23.4347 20.1581 23.1778 19.8975 22.8609 19.8975C22.544 19.8975 22.2871 20.1581 22.2871 20.4796C22.2871 20.8011 22.544 21.0617 22.8609 21.0617Z" fill="#751A9F"/>
<path d="M17.1734 9.9328C17.4903 9.9328 17.7472 9.67218 17.7472 9.35068C17.7472 9.02918 17.4903 8.76855 17.1734 8.76855C16.8565 8.76855 16.5996 9.02918 16.5996 9.35068C16.5996 9.67218 16.8565 9.9328 17.1734 9.9328Z" fill="#751A9F"/>
<path d="M17.4586 16.4533C17.7755 16.4533 18.0324 16.1927 18.0324 15.8712C18.0324 15.5497 17.7755 15.2891 17.4586 15.2891C17.1417 15.2891 16.8848 15.5497 16.8848 15.8712C16.8848 16.1927 17.1417 16.4533 17.4586 16.4533Z" fill="#751A9F"/>
<defs>
<linearGradient id="paint0_linear_7944_11702" x1="37.6965" y1="3.75" x2="15.7624" y2="16.804" gradientUnits="userSpaceOnUse">
<stop stop-color="#7427B3"/>
<stop offset="1" stop-color="#9C86E2" stop-opacity="0"/>
</linearGradient>
<clipPath id="clip0_7944_11702">
<rect width="22" height="32" fill="white" transform="translate(1 1)"/>
</clipPath>
<clipPath id="clip1_7944_11702">
<rect width="15.4815" height="12.3077" fill="white" transform="translate(5.07422 20.6924)"/>
</clipPath>
</defs>
</svg>
