<svg width="15" height="15" viewBox="0 0 15 15" fill="none" xmlns="http://www.w3.org/2000/svg">
<circle cx="7.5" cy="7.5" r="7.5" fill="#42B549"/>
<g clip-path="url(#clip0_7379_11094)">
<path d="M7.1875 12.5C10.1215 12.5 12.5 12.0272 12.5 11.4439C12.5 10.8606 10.1215 10.3877 7.1875 10.3877C4.25349 10.3877 1.875 10.8606 1.875 11.4439C1.875 12.0272 4.25349 12.5 7.1875 12.5Z" fill="url(#paint0_radial_7379_11094)"/>
<path fill-rule="evenodd" clip-rule="evenodd" d="M9.60139 4.40581C9.48521 3.33201 8.54011 2.49749 7.39498 2.50001C6.24985 2.50252 5.30824 3.33285 5.18071 4.39993L5.15625 4.64676L5.8463 4.68706L5.8594 4.44275C5.96334 3.67203 6.5608 3.15486 7.39323 3.15402C8.22566 3.15234 8.83884 3.67707 8.92881 4.45618L8.97161 4.78613L9.64244 4.73995L9.60139 4.40581Z" fill="#414242"/>
<path fill-rule="evenodd" clip-rule="evenodd" d="M3.35389 4.30584C3.20366 4.30752 3.08312 4.42422 3.08399 4.56862L3.09185 8.39114L3.0936 9.07454V9.25757L3.09796 11.6184C3.09796 11.7637 3.22025 11.8804 3.37136 11.8804L5.82846 11.8762L6.25734 11.8753L8.97997 11.8703C10.4815 11.8678 11.7078 10.684 11.7052 9.24162V9.05859L11.6965 4.7676C11.6956 4.50482 11.4746 4.29157 11.2012 4.29073C10.7007 4.28905 10.1889 4.28821 9.69273 4.31592L9.07343 4.36797C8.52052 4.43346 7.96237 4.55351 7.51689 4.77012C7.43741 4.80874 7.34482 4.80874 7.26621 4.76928C6.7989 4.53504 6.29053 4.41499 5.71054 4.35286L5.09124 4.3092C4.50951 4.28485 3.91554 4.29997 3.35389 4.30584Z" fill="#60BB55"/>
<path fill-rule="evenodd" clip-rule="evenodd" d="M3.62729 4.30248C3.32507 4.30668 3.08311 4.5426 3.08399 4.83309L3.09097 8.39114L3.09272 9.07454V9.25757L3.09709 11.6142C3.09709 11.7611 3.222 11.8804 3.37486 11.8804L5.82758 11.8762L6.25646 11.8753L8.9791 11.8703C10.4806 11.8678 11.707 10.684 11.7044 9.24162V9.05859L11.6956 4.7718C11.6947 4.5065 11.472 4.29157 11.196 4.29073C10.6972 4.28905 10.1862 4.28821 9.69186 4.31592L9.07256 4.36797C8.52052 4.43346 7.96324 4.55267 7.51777 4.76928C7.43741 4.8079 7.34307 4.80874 7.26271 4.76844C6.7954 4.53504 6.28791 4.41499 5.70879 4.3537L5.08949 4.31004C4.60209 4.28905 4.10596 4.29577 3.62729 4.30248Z" fill="url(#paint1_linear_7379_11094)"/>
<path fill-rule="evenodd" clip-rule="evenodd" d="M3.86914 11.8797L5.82661 11.8764L6.25548 11.8755L8.97812 11.8705C9.64371 11.8697 10.2543 11.6363 10.7277 11.2517C10.1722 10.0142 8.88902 9.14948 7.39712 9.15284C5.66938 9.15536 4.22639 10.3223 3.86914 11.8797Z" fill="#84C468"/>
<path fill-rule="evenodd" clip-rule="evenodd" d="M3.86914 11.8797L5.82661 11.8764L6.25548 11.8755L8.97812 11.8705C9.64371 11.8697 10.2543 11.6363 10.7277 11.2517C10.1722 10.0142 8.88902 9.14948 7.39712 9.15284C5.66938 9.15536 4.22639 10.3223 3.86914 11.8797Z" fill="url(#paint2_linear_7379_11094)"/>
<path fill-rule="evenodd" clip-rule="evenodd" d="M7.4046 11.873L9.0118 11.8469C9.66866 11.8461 10.2652 11.6219 10.7299 11.2517C11.3283 10.7748 11.7065 10.0528 11.7047 9.24094V9.05791L11.696 4.50582C11.696 4.38744 11.5956 4.29089 11.4724 4.29089C10.8872 4.29005 10.2792 4.28249 9.69224 4.31524L9.07295 4.36729C8.46675 4.43949 7.85444 4.57634 7.39062 4.83492L7.4046 11.873Z" fill="#4F9D4D"/>
<path fill-rule="evenodd" clip-rule="evenodd" d="M7.4046 11.873L9.0118 11.8469C9.66866 11.8461 10.2652 11.6219 10.7299 11.2517C11.3283 10.7748 11.7065 10.0528 11.7047 9.24094V9.05791L11.696 4.50582C11.696 4.38744 11.5956 4.29089 11.4724 4.29089C10.8872 4.29005 10.2792 4.28249 9.69224 4.31524L9.07295 4.36729C8.46675 4.43949 7.85444 4.57634 7.39062 4.83492L7.4046 11.873Z" fill="url(#paint3_linear_7379_11094)"/>
<path opacity="0.7" fill-rule="evenodd" clip-rule="evenodd" d="M9.3481 5.55274C10.4312 5.55106 11.3117 6.39314 11.3134 7.43419C11.3152 8.47524 10.4391 9.32068 9.35596 9.3232C8.27285 9.32488 7.39325 8.4828 7.39063 7.44175C7.38801 6.40069 8.26411 5.55526 9.3481 5.55274Z" fill="url(#paint4_linear_7379_11094)"/>
<path fill-rule="evenodd" clip-rule="evenodd" d="M9.34715 5.8003C10.2879 5.79862 11.0522 6.53071 11.0539 7.43492C11.0557 8.33913 10.294 9.07374 9.35326 9.07542C8.41253 9.0771 7.64823 8.345 7.64649 7.4408C7.64561 6.53659 8.40641 5.80197 9.34715 5.8003Z" fill="white"/>
<path fill-rule="evenodd" clip-rule="evenodd" d="M10.9961 6.98828C10.7917 7.67504 10.1331 8.17878 9.35223 8.18046C8.57134 8.18214 7.91186 7.68092 7.7031 6.995C7.6603 7.14024 7.63672 7.29304 7.63672 7.45172C7.63847 8.36096 8.40713 9.09809 9.35398 9.09558C10.3008 9.0939 11.0669 8.35425 11.0651 7.445C11.0642 7.28716 11.0398 7.13353 10.9961 6.98828Z" fill="url(#paint5_linear_7379_11094)"/>
<path fill-rule="evenodd" clip-rule="evenodd" d="M9.15638 6.37721C9.77567 6.31676 10.3295 6.74998 10.3932 7.34522C10.4561 7.94131 10.0054 8.47275 9.38523 8.53404C8.76506 8.59449 8.21215 8.16128 8.14838 7.56519C8.12742 7.36705 8.16411 7.17563 8.24447 7.00604C8.34492 7.18823 8.5528 7.30325 8.77991 7.28058C9.07776 7.25119 9.29613 6.99597 9.26556 6.70884C9.25159 6.57955 9.19044 6.46704 9.10047 6.38393C9.11882 6.38057 9.13803 6.37889 9.15638 6.37721Z" fill="#303030"/>
<path fill-rule="evenodd" clip-rule="evenodd" d="M7.40455 11.8727L8.98992 11.8701C9.65551 11.8693 10.2565 11.6359 10.7299 11.2522C10.1796 10.029 8.86938 9.17011 7.39844 9.15332L7.40455 11.8727Z" fill="#60BB55"/>
<path fill-rule="evenodd" clip-rule="evenodd" d="M7.40455 11.8727L8.98992 11.8701C9.65551 11.8693 10.2565 11.6359 10.7299 11.2522C10.1796 10.029 8.86938 9.17011 7.39844 9.15332L7.40455 11.8727Z" fill="url(#paint6_linear_7379_11094)"/>
<path opacity="0.5" d="M8.4348 9.06261C8.25399 8.41699 7.59014 8.35906 7.40933 8.34898C7.4006 8.34814 7.39449 8.34731 7.36828 8.34982C7.19446 8.36661 6.52625 8.43294 6.36378 9.09116C6.35941 9.11214 6.36203 9.17343 6.36291 9.1961L6.36378 9.19862C6.36378 9.19862 6.42056 9.23472 6.50878 9.28845C6.62408 9.59573 7.17786 10.1767 7.40409 10.1767C7.41195 10.1767 7.41632 10.1759 7.42506 10.1759C7.61198 10.1759 8.11773 9.65114 8.26622 9.31112C8.35619 9.25487 8.41995 9.21289 8.43305 9.20198C8.43655 9.16084 8.44266 9.09955 8.4348 9.06261Z" fill="url(#paint7_linear_7379_11094)"/>
<path opacity="0.7" fill-rule="evenodd" clip-rule="evenodd" d="M5.42622 5.55274C6.50934 5.55106 7.38981 6.39314 7.39155 7.43419C7.3933 8.47524 6.5172 9.32068 5.43408 9.3232C4.35097 9.32488 3.47138 8.4828 3.46876 7.44175C3.46614 6.40069 4.34224 5.55526 5.42622 5.55274Z" fill="url(#paint8_linear_7379_11094)"/>
<path fill-rule="evenodd" clip-rule="evenodd" d="M5.42527 5.8003C6.36601 5.79862 7.13031 6.53071 7.13205 7.43492C7.1338 8.33913 6.37213 9.07374 5.43139 9.07542C4.49065 9.0771 3.72636 8.345 3.72461 7.4408C3.72374 6.53659 4.48454 5.80197 5.42527 5.8003Z" fill="white"/>
<path fill-rule="evenodd" clip-rule="evenodd" d="M7.07424 6.98828C6.86985 7.67504 6.21125 8.17878 5.43036 8.18046C4.64947 8.18214 3.98999 7.68092 3.78123 6.995C3.73843 7.14024 3.71484 7.29304 3.71484 7.45172C3.71659 8.36096 4.48525 9.09809 5.4321 9.09558C6.37896 9.0939 7.145 8.35425 7.14325 7.445C7.14238 7.28716 7.11792 7.13353 7.07424 6.98828Z" fill="url(#paint9_linear_7379_11094)"/>
<path fill-rule="evenodd" clip-rule="evenodd" d="M5.61029 6.37109C6.23308 6.37026 6.73883 6.85468 6.74057 7.45245C6.74145 8.05105 6.23745 8.53716 5.61466 8.53884C4.99187 8.53968 4.48612 8.05609 4.48438 7.45665C4.48438 7.25683 4.54028 7.07045 4.63811 6.90925C4.71934 7.10067 4.91413 7.23416 5.1421 7.23416C5.44171 7.23332 5.68454 6.99992 5.68454 6.71196C5.68454 6.58182 5.63475 6.46345 5.55351 6.37277C5.57186 6.37109 5.59107 6.37109 5.61029 6.37109Z" fill="#303030"/>
<path fill-rule="evenodd" clip-rule="evenodd" d="M7.42409 10.0267C7.6512 10.0267 8.34474 9.29037 8.30543 9.02339C8.14559 8.44409 7.5656 8.37189 7.40662 8.36266C7.39876 8.36182 7.39352 8.36098 7.36994 8.3635C7.21708 8.37777 6.63098 8.4718 6.4886 9.06201C6.44143 9.28449 7.14196 10.0275 7.40313 10.0283C7.41099 10.0275 7.41623 10.0267 7.42409 10.0267Z" fill="url(#paint10_linear_7379_11094)"/>
<path d="M8.16296 9.37527C8.25729 9.23675 8.31669 9.10661 8.30446 9.0235C8.2407 8.79094 8.10793 8.63982 7.96293 8.54243C7.73932 8.42573 7.50523 8.40138 7.40827 8.39635C7.39954 8.39551 7.39342 8.39467 7.36722 8.39719C7.27463 8.40558 7.04054 8.43833 6.81868 8.56426C6.67455 8.66836 6.54615 8.82536 6.4885 9.06212C6.4754 9.12509 6.52257 9.23087 6.60293 9.34925C6.86322 9.49785 7.26153 9.7111 7.39954 9.7111C7.54104 9.7111 7.90703 9.52136 8.16296 9.37527Z" fill="url(#paint11_linear_7379_11094)"/>
<path opacity="0.5" d="M8.16296 9.37527C8.25729 9.23675 8.31669 9.10661 8.30446 9.0235C8.2407 8.79094 8.10793 8.63982 7.96293 8.54243C7.73932 8.42573 7.50523 8.40138 7.40827 8.39635C7.39954 8.39551 7.39342 8.39467 7.36722 8.39719C7.27463 8.40558 7.04054 8.43833 6.81868 8.56426C6.67455 8.66836 6.54615 8.82536 6.4885 9.06212C6.4754 9.12509 6.52257 9.23087 6.60293 9.34925C6.86322 9.49785 7.26153 9.7111 7.39954 9.7111C7.54104 9.7111 7.90703 9.52136 8.16296 9.37527Z" fill="url(#paint12_linear_7379_11094)"/>
<path opacity="0.8" fill-rule="evenodd" clip-rule="evenodd" d="M7.20613 4.92529C6.73794 4.6667 6.22871 4.53825 5.63998 4.47612L5.06261 4.43498C4.52193 4.41148 3.96901 4.42575 3.4458 4.43079C3.30517 4.43247 3.19249 4.54161 3.19336 4.67678C5.00671 4.36698 7.20613 4.92529 7.20613 4.92529Z" fill="url(#paint13_linear_7379_11094)"/>
<path opacity="0.8" fill-rule="evenodd" clip-rule="evenodd" d="M7.53906 4.92529C8.00725 4.6667 8.51648 4.53825 9.10521 4.47612L9.68258 4.43498C10.2233 4.41148 10.7762 4.42575 11.3003 4.43079C11.4409 4.43247 11.5536 4.54161 11.5527 4.67678C9.73848 4.36698 7.53906 4.92529 7.53906 4.92529Z" fill="url(#paint14_linear_7379_11094)"/>
<path d="M8.42906 8.98306C8.24825 8.36515 7.59052 8.28875 7.40971 8.27867C7.40097 8.27783 7.39486 8.27699 7.36866 8.27951C7.19483 8.29546 6.53099 8.39621 6.36852 9.02672C6.36415 9.04687 6.36328 9.06786 6.36328 9.08969L6.36415 9.09221C6.36415 9.09221 7.18785 9.59426 7.4001 9.59426C7.62109 9.59426 8.38451 9.13586 8.43255 9.09472C8.43779 9.05527 8.43692 9.01832 8.42906 8.98306Z" fill="url(#paint15_linear_7379_11094)"/>
<path opacity="0.9" fill-rule="evenodd" clip-rule="evenodd" d="M6.36852 9.02664C6.36415 9.04679 6.36328 9.06778 6.36328 9.08961L6.36415 9.09213C6.36415 9.09213 7.16514 9.58075 7.3905 9.59418C7.45251 8.38018 7.36866 8.28027 7.36866 8.28027C7.19571 8.29539 6.53099 8.39613 6.36852 9.02664Z" fill="url(#paint16_linear_7379_11094)"/>
<path fill-rule="evenodd" clip-rule="evenodd" d="M7.61439 8.30567C7.52616 8.28804 7.45279 8.28133 7.40824 8.27965C7.39951 8.27881 7.39339 8.27797 7.36719 8.28049C7.36719 8.28049 7.45192 8.3804 7.38902 9.5944C7.49559 9.3207 7.5777 8.65577 7.61439 8.30567Z" fill="url(#paint17_linear_7379_11094)"/>
<path fill-rule="evenodd" clip-rule="evenodd" d="M7.34236 8.28223C7.34022 8.28223 7.33808 8.28223 7.33594 8.28326C7.33808 8.28326 7.34022 8.28326 7.34236 8.28223Z" fill="white"/>
</g>
<defs>
<radialGradient id="paint0_radial_7379_11094" cx="0" cy="0" r="1" gradientUnits="userSpaceOnUse" gradientTransform="translate(7.18678 11.4739) scale(5.1791 0.943575)">
<stop offset="0.1246" stop-color="#515252" stop-opacity="0.7"/>
<stop offset="0.9663" stop-color="#515252" stop-opacity="0"/>
</radialGradient>
<linearGradient id="paint1_linear_7379_11094" x1="8.21527" y1="5.84999" x2="4.04296" y2="13.8351" gradientUnits="userSpaceOnUse">
<stop stop-color="#519B4C" stop-opacity="0"/>
<stop offset="1" stop-color="#519B4C"/>
</linearGradient>
<linearGradient id="paint2_linear_7379_11094" x1="7.29075" y1="10.6032" x2="7.30806" y2="12.8177" gradientUnits="userSpaceOnUse">
<stop stop-color="#519B4C" stop-opacity="0"/>
<stop offset="1" stop-color="#519B4C"/>
</linearGradient>
<linearGradient id="paint3_linear_7379_11094" x1="9.4666" y1="7.53261" x2="10.3501" y2="14.9946" gradientUnits="userSpaceOnUse">
<stop stop-color="#519B4C" stop-opacity="0"/>
<stop offset="1" stop-color="#519B4C"/>
</linearGradient>
<linearGradient id="paint4_linear_7379_11094" x1="11.575" y1="5.58568" x2="6.71308" y2="9.97032" gradientUnits="userSpaceOnUse">
<stop stop-color="#3F843F"/>
<stop offset="1" stop-color="#519B4C"/>
</linearGradient>
<linearGradient id="paint5_linear_7379_11094" x1="9.35068" y1="9.07285" x2="9.35068" y2="7.09389" gradientUnits="userSpaceOnUse">
<stop stop-color="#E5E3E3"/>
<stop offset="1" stop-color="#E5E3E3" stop-opacity="0"/>
</linearGradient>
<linearGradient id="paint6_linear_7379_11094" x1="9.0312" y1="10.7777" x2="8.92734" y2="12.7225" gradientUnits="userSpaceOnUse">
<stop stop-color="#519B4C" stop-opacity="0"/>
<stop offset="1" stop-color="#519B4C"/>
</linearGradient>
<linearGradient id="paint7_linear_7379_11094" x1="7.41118" y1="8.58655" x2="7.3674" y2="10.8187" gradientUnits="userSpaceOnUse">
<stop stop-color="#3F843F"/>
<stop offset="1" stop-color="#519B4C"/>
</linearGradient>
<linearGradient id="paint8_linear_7379_11094" x1="3.46849" y1="7.43803" x2="7.39131" y2="7.43803" gradientUnits="userSpaceOnUse">
<stop stop-color="#3F843F"/>
<stop offset="1" stop-color="#519B4C"/>
</linearGradient>
<linearGradient id="paint9_linear_7379_11094" x1="5.42879" y1="9.07285" x2="5.42879" y2="7.09389" gradientUnits="userSpaceOnUse">
<stop stop-color="#E5E3E3"/>
<stop offset="1" stop-color="#E5E3E3" stop-opacity="0"/>
</linearGradient>
<linearGradient id="paint10_linear_7379_11094" x1="7.39571" y1="8.56852" x2="7.39414" y2="10.0072" gradientUnits="userSpaceOnUse">
<stop stop-color="#F9EC31"/>
<stop offset="0.2122" stop-color="#F9DE2E"/>
<stop offset="0.6076" stop-color="#F7BB27"/>
<stop offset="0.9996" stop-color="#F6921E"/>
</linearGradient>
<linearGradient id="paint11_linear_7379_11094" x1="8.48401" y1="9.87617" x2="7.33899" y2="8.91446" gradientUnits="userSpaceOnUse">
<stop stop-color="#F9EC31"/>
<stop offset="0.2122" stop-color="#F9DE2E"/>
<stop offset="0.6076" stop-color="#F7BB27"/>
<stop offset="0.9996" stop-color="#F6921E"/>
</linearGradient>
<linearGradient id="paint12_linear_7379_11094" x1="8.48401" y1="9.87617" x2="7.33899" y2="8.91446" gradientUnits="userSpaceOnUse">
<stop stop-color="#F9EC31"/>
<stop offset="0.2122" stop-color="#F9DE2E"/>
<stop offset="0.6076" stop-color="#F7BB27"/>
<stop offset="0.9996" stop-color="#F6921E"/>
</linearGradient>
<linearGradient id="paint13_linear_7379_11094" x1="5.19951" y1="5.1303" x2="5.19951" y2="3.74331" gradientUnits="userSpaceOnUse">
<stop offset="0.198" stop-color="white" stop-opacity="0"/>
<stop offset="0.9718" stop-color="white"/>
</linearGradient>
<linearGradient id="paint14_linear_7379_11094" x1="9.54608" y1="5.16631" x2="9.54608" y2="3.77931" gradientUnits="userSpaceOnUse">
<stop offset="0.198" stop-color="white" stop-opacity="0"/>
<stop offset="0.9718" stop-color="white"/>
</linearGradient>
<linearGradient id="paint15_linear_7379_11094" x1="7.41291" y1="8.44957" x2="7.38139" y2="10.0565" gradientUnits="userSpaceOnUse">
<stop stop-color="#F9EC31"/>
<stop offset="0.2122" stop-color="#F9DE2E"/>
<stop offset="0.6076" stop-color="#F7BB27"/>
<stop offset="0.9996" stop-color="#F6921E"/>
</linearGradient>
<linearGradient id="paint16_linear_7379_11094" x1="8.23047" y1="8.632" x2="6.78148" y2="9.15636" gradientUnits="userSpaceOnUse">
<stop offset="0.00130208" stop-color="#F9EC31" stop-opacity="0"/>
<stop offset="0.2133" stop-color="#F9DE2E" stop-opacity="0.2123"/>
<stop offset="0.6082" stop-color="#F7BB27" stop-opacity="0.6079"/>
<stop offset="0.9996" stop-color="#F6921E"/>
</linearGradient>
<linearGradient id="paint17_linear_7379_11094" x1="7.63182" y1="9.85738" x2="7.37079" y2="7.87774" gradientUnits="userSpaceOnUse">
<stop offset="0.198" stop-color="white" stop-opacity="0"/>
<stop offset="0.9718" stop-color="white"/>
</linearGradient>
<clipPath id="clip0_7379_11094">
<rect width="10.625" height="10" fill="white" transform="translate(1.875 2.5)"/>
</clipPath>
</defs>
</svg>
