<svg width="35" height="35" viewBox="0 0 35 35" fill="none" xmlns="http://www.w3.org/2000/svg">
<path d="M20 35C28.2843 35 35 28.2843 35 20C35 11.7157 28.2843 5 20 5C11.7157 5 5 11.7157 5 20C5 28.2843 11.7157 35 20 35Z" fill="#0BDA45" fill-opacity="0.3"/>
<path d="M16 33C24.2843 33 31 26.2843 31 18C31 9.71573 24.2843 3 16 3C7.71573 3 1 9.71573 1 18C1 26.2843 7.71573 33 16 33Z" stroke="#343A40" stroke-linecap="round" stroke-linejoin="round"/>
<path d="M15.9856 22.7232L19.9824 12H22L16.8118 25H15.1785L10 12H12.008L15.9856 22.7232Z" fill="#343A40"/>
</svg>
