<svg width="21" height="22" viewBox="0 0 21 22" fill="none" xmlns="http://www.w3.org/2000/svg">
<path d="M13.0903 20.1163V14.818C13.0903 14.5838 12.9993 14.3592 12.8373 14.1936C12.6754 14.028 12.4557 13.935 12.2266 13.935H8.77209C8.54304 13.935 8.32338 14.028 8.16141 14.1936C7.99945 14.3592 7.90846 14.5838 7.90846 14.818V20.1163C7.90846 20.3504 7.81748 20.575 7.65554 20.7406C7.4936 20.9062 7.27396 20.9993 7.04493 20.9993L1.86374 21C1.75032 21 1.63801 20.9772 1.53321 20.9328C1.42842 20.8884 1.3332 20.8234 1.25299 20.7414C1.17278 20.6594 1.10916 20.5621 1.06575 20.4549C1.02234 20.3478 1 20.2329 1 20.117V9.91136C1 9.78834 1.02514 9.66667 1.07381 9.55416C1.12249 9.44165 1.19361 9.34078 1.28264 9.25802L9.91841 1.22969C10.0774 1.0819 10.2845 1.00001 10.4994 1C10.7142 0.999993 10.9214 1.08187 11.0804 1.22965L19.7173 9.25802C19.8064 9.34078 19.8775 9.44165 19.9262 9.55417C19.9749 9.66669 20 9.78836 20 9.91139V20.117C20 20.2329 19.9777 20.3478 19.9343 20.4549C19.8908 20.5621 19.8272 20.6594 19.747 20.7414C19.6668 20.8234 19.5716 20.8884 19.4668 20.9328C19.362 20.9772 19.2497 21 19.1363 21L13.9538 20.9993C13.7248 20.9993 13.5051 20.9062 13.3432 20.7406C13.1812 20.575 13.0903 20.3504 13.0903 20.1163Z" stroke="#868E96" strokeLinecap="round" strokeLinejoin="round"/>
</svg>
