<svg width="16" height="15" viewBox="0 0 16 15" fill="none" xmlns="http://www.w3.org/2000/svg">
<circle cx="7.8574" cy="7.49998" r="7.49998" fill="#A4D233" fill-opacity="0.31"/>
<g clip-path="url(#clip0_7379_11313)">
<path d="M9.16499 5.52353C9.01993 6.14661 8.54183 6.56779 8.09622 6.46453C7.65061 6.36126 7.40575 5.77299 7.54849 5.14992C7.69354 4.52916 8.17049 4.10798 8.6161 4.21008C9.06287 4.31451 9.30888 4.90162 9.16499 5.52353Z" fill="#F2827F"/>
<path d="M12.1947 7.56356C12.1947 9.96884 10.2463 11.9181 7.83953 11.9181C5.43392 11.9193 3.48438 9.96884 3.48438 7.56356C3.48438 5.15827 5.43392 3.20898 7.83953 3.20898C10.2463 3.20898 12.1947 5.15827 12.1947 7.56356ZM8.72379 3.74736C7.4589 3.45613 6.0362 4.93318 5.54881 7.04955C5.06026 9.1636 5.68922 11.1152 6.95527 11.4088C8.22016 11.7012 9.6417 10.2229 10.1303 8.10658C10.62 5.99252 9.98984 4.04091 8.72379 3.74736Z" fill="#A4D233"/>
</g>
<defs>
<clipPath id="clip0_7379_11313">
<rect width="8.71031" height="8.71031" fill="white" transform="translate(3.48438 3.20898)"/>
</clipPath>
</defs>
</svg>
