<svg width="38" height="38" viewBox="0 0 38 38" fill="none" xmlns="http://www.w3.org/2000/svg">
<g clip-path="url(#clip0_7944_11748)">
<path d="M16.6068 19L16.4492 34.2609" stroke="#343A40" strokeLinecap="round" strokeLinejoin="round"/>
<path d="M30.1055 26.0261V11.9743C30.1055 11.764 30.0496 11.5575 29.9436 11.3759C29.8377 11.1942 29.6854 11.044 29.5023 10.9405L17.0335 3.89296C16.8553 3.79221 16.654 3.73926 16.4492 3.73926C16.2445 3.73926 16.0432 3.79221 15.8649 3.89296L3.39615 10.9405C3.21308 11.044 3.06077 11.1942 2.95479 11.3759C2.84881 11.5575 2.79297 11.764 2.79297 11.9743V26.0261C2.79297 26.2364 2.84881 26.4429 2.95479 26.6245C3.06077 26.8062 3.21308 26.9564 3.39615 27.0599L15.8649 34.1074C16.0432 34.2082 16.2445 34.2611 16.4492 34.2611C16.654 34.2611 16.8553 34.2082 17.0335 34.1074L29.5023 27.0599C29.6854 26.9564 29.8377 26.8062 29.9436 26.6245C30.0496 26.4429 30.1055 26.2364 30.1055 26.0261V26.0261Z" stroke="#343A40" strokeLinecap="round" strokeLinejoin="round"/>
<path d="M29.9433 11.3742L16.6072 18.9999L2.95703 11.3726" stroke="#343A40" strokeLinecap="round" strokeLinejoin="round"/>
<path d="M23.7426 22.0444V14.9194L9.9707 7.22412" stroke="#343A40" strokeLinecap="round" strokeLinejoin="round"/>
<path d="M29.128 33.1804C29.128 33.1804 22.9468 29.2996 23.1253 24.8986C23.1569 24.1208 23.451 23.3777 23.9576 22.7957C24.4641 22.2136 25.1518 21.8286 25.9037 21.706C26.6556 21.5834 27.4254 21.7309 28.0821 22.1233C28.7388 22.5157 29.242 23.1289 29.506 23.8585C29.8282 23.1527 30.3793 22.5823 31.0656 22.2443C31.752 21.9063 32.5311 21.8217 33.2707 22.0047C34.0102 22.1877 34.6645 22.6272 35.1222 23.2483C35.58 23.8694 35.813 24.6339 35.7815 25.4117C35.6031 29.8127 29.128 33.1804 29.128 33.1804Z" fill="#F7F3EB" stroke="#4ABFA1" strokeLinecap="round" strokeLinejoin="round"/>
</g>
<defs>
<clipPath id="clip0_7944_11748">
<rect width="38" height="38" fill="white"/>
</clipPath>
</defs>
</svg>
