<svg width="40" height="40" viewBox="0 0 40 40" fill="none" xmlns="http://www.w3.org/2000/svg">
<path d="M24.4401 18H18.6267C15.5288 18 13 20.6025 13 23.7909V28.487V29.7739V37.2934C13 37.7447 13.3639 38.1193 13.8025 38.1193H29.2644C29.703 38.1193 30.0669 37.7447 30.0669 37.2934V29.7739V28.487V23.7909C30.0669 20.6025 27.5381 18 24.4401 18Z" fill="#215FFF" fill-opacity="0.3"/>
<g clip-path="url(#clip0_7944_11814)">
<path d="M21.9069 16.4004H16.0935C12.9956 16.4004 10.4668 19.0029 10.4668 22.1913V26.8874V28.1742V35.6938C10.4668 36.1451 10.8307 36.5197 11.2693 36.5197H26.7312C27.1698 36.5197 27.5337 36.1451 27.5337 35.6938V28.1742V26.8874V22.1913C27.5337 19.0029 25.0049 16.4004 21.9069 16.4004Z" stroke="#343A40" stroke-miterlimit="10"/>
<path d="M15.207 16.4007V13.7885C15.207 12.8762 15.9349 12.1367 16.812 12.1367H21.1884C22.0748 12.1367 22.7933 12.8858 22.7933 13.7885V16.3911" stroke="#343A40" stroke-miterlimit="10"/>
<path d="M18.1094 12.1361V9.54319C18.1094 9.04381 18.5106 8.63086 18.9958 8.63086C19.4811 8.63086 19.8823 9.04381 19.8823 9.54319V12.1361" stroke="#343A40" stroke-miterlimit="10"/>
<path d="M26.2639 8.63165H16.7834C16.2048 8.63165 15.7383 8.15147 15.7383 7.55606C15.7383 6.96064 16.2142 6.48047 16.7834 6.48047H26.2639C26.8425 6.48047 27.309 6.96064 27.309 7.55606C27.309 8.14187 26.8331 8.63165 26.2639 8.63165Z" stroke="#343A40" stroke-miterlimit="10"/>
<path d="M23.5773 27.1952H14.4234C13.9101 27.1952 13.4902 26.7631 13.4902 26.2349V21.9037C13.4902 21.3755 13.9101 20.9434 14.4234 20.9434H23.5773C24.0905 20.9434 24.5105 21.3755 24.5105 21.9037V26.2349C24.5105 26.7631 24.0905 27.1952 23.5773 27.1952Z" stroke="#343A40" stroke-miterlimit="10"/>
</g>
<defs>
<clipPath id="clip0_7944_11814">
<rect width="18" height="31" fill="white" transform="translate(10 6)"/>
</clipPath>
</defs>
</svg>
