<svg width="38" height="34" viewBox="0 0 38 34" fill="none" xmlns="http://www.w3.org/2000/svg">
<g clip-path="url(#clip0_7944_11756)">
<path d="M24.8043 18.4939L22.7274 18.3219L21.3288 16.2784L19.9302 15.2464L18.5315 15.5904L17.4826 16.9665H16.084L14.3357 16.6225V14.9024L15.035 13.8704L15.5385 13.6778L16.084 13.1824L16.4336 11.4624L17.4826 10.7743L19.5805 9.74232C19.5805 9.74232 16.7833 8.02228 15.035 8.36629L14.3357 9.74232H12.9371L12.3916 10.7743L9.09095 11.1183L6.44756 11.7857L5.39861 13.6778L5.74826 14.8818L6.29374 15.5904L10.1189 15.7418L11.5385 17.6545L13.6364 17.9985V21.7826L11.1889 23.1586L10.993 25.374L9.79025 25.5666L8.39165 20.4065L5.94408 20.0625L5.04896 17.6545L5.94408 15.9138L5.22378 14.3658L4.6993 15.2258L4.54548 16.2784L4 19.1819L5.24478 23.1586C5.24478 23.1586 7.34269 26.5987 9.4406 27.6307C9.4406 27.6307 15.7343 29.3507 16.7833 28.3187L17.1329 26.9427L17.8322 26.5987L19.5805 26.2546L20.4336 24.686L22.7274 24.5346C22.7274 24.5346 25.5036 20.9019 24.8043 18.4939Z" fill="#8DC3FE" fill-opacity="0.8"/>
<path d="M21.3301 10.7744L23.6798 13.8498L21.6798 13.5265L20.9805 11.8064L21.3301 10.7744Z" fill="#9DCCFF" fill-opacity="0.8"/>
<path d="M13.2861 18.3426L11.1882 17.9986L10.1393 15.9346L6.2931 16.2786L5.24414 17.6546L5.94344 20.0627H8.04135L9.09031 21.4387L9.43996 23.5027L10.1393 25.5668L11.1882 25.2228V22.8147L12.5868 22.1267L13.6358 21.4387L13.2861 18.3426Z" fill="#76B940" fill-opacity="0.6"/>
<path d="M22.7273 24.8789H20.979C20.979 24.8789 20.2797 24.8789 19.9301 26.2549L17.8322 26.5989L16.7832 28.319H18.1818L20.979 26.9429L22.7273 24.8789Z" fill="#76B940" fill-opacity="0.6"/>
<path d="M20.6296 10.0859C20.6296 10.0859 20.6296 12.838 21.3289 13.526L23.7765 14.214L24.8254 17.9981H22.7275L20.6296 15.246L19.231 14.902L17.1331 16.6221H14.6855V14.558L16.5352 13.0994L16.7835 11.462C16.7835 11.462 18.5317 10.0859 20.6296 10.0859Z" fill="#76B940" fill-opacity="0.6"/>
<path d="M17.1369 28.3185H16.4376V28.1259C16.4357 27.8799 16.4835 27.636 16.5782 27.4084C16.6729 27.1807 16.8127 26.9738 16.9893 26.7997C17.1659 26.6256 17.3759 26.4878 17.6071 26.3942C17.8383 26.3006 18.0861 26.2531 18.3362 26.2545H18.4935C18.7417 26.2547 18.9837 26.1781 19.1852 26.0355C19.3866 25.8929 19.5373 25.6914 19.6159 25.4598C19.7402 25.0902 19.9797 24.7686 20.3005 24.5407C20.6213 24.3128 21.0069 24.1903 21.4026 24.1904H23.0949V24.8784H21.3886C21.1399 24.8779 20.8973 24.9548 20.6957 25.0982C20.4941 25.2415 20.3437 25.444 20.2662 25.6765C20.1414 26.0455 19.9015 26.3663 19.5808 26.5936C19.2601 26.8208 18.8748 26.9429 18.4795 26.9425H18.3362C18.1778 26.9406 18.0208 26.97 17.8742 27.0289C17.7276 27.0877 17.5945 27.1749 17.4827 27.2852C17.3709 27.3955 17.2827 27.5267 17.2233 27.6711C17.1639 27.8155 17.1345 27.9701 17.1369 28.1259V28.3185Z" fill="#343A40"/>
<path d="M24.8255 18.686H23.3465C23.0986 18.6866 22.8544 18.6265 22.6359 18.5112C22.4174 18.3959 22.2315 18.229 22.0948 18.0256L20.885 16.2436C20.7628 16.063 20.6013 15.9113 20.4123 15.7996C20.2233 15.6878 20.0114 15.6187 19.7919 15.5974C19.5725 15.576 19.3509 15.6028 19.1433 15.6759C18.9356 15.749 18.7471 15.8665 18.5912 16.02L17.7206 16.8766C17.5806 17.0144 17.4143 17.1236 17.2313 17.198C17.0483 17.2723 16.8522 17.3104 16.6542 17.31H15.4933C15.0939 17.3091 14.7112 17.1526 14.4287 16.8748C14.1463 16.5969 13.9873 16.2203 13.9863 15.8273V15.1393C13.9887 14.7995 14.1094 14.4707 14.3282 14.2078C14.5471 13.9449 14.8509 13.7637 15.1891 13.6945C15.356 13.6605 15.5079 13.5758 15.6233 13.4523C15.7387 13.3289 15.8119 13.173 15.8325 13.0065L15.9898 11.7612C16.0235 11.4901 16.1328 11.2335 16.3056 11.0198C16.4784 10.806 16.708 10.6435 16.9689 10.5503L20.1507 9.41162L20.3989 10.0652L17.2206 11.2039C17.0801 11.2537 16.9564 11.3408 16.8632 11.4555C16.77 11.5703 16.711 11.7083 16.6926 11.8541L16.5353 13.0994C16.4958 13.4076 16.3587 13.6957 16.1434 13.9229C15.9282 14.1501 15.6457 14.3049 15.336 14.3653C15.1527 14.4018 14.9879 14.4994 14.8694 14.6417C14.7509 14.784 14.6859 14.9623 14.6856 15.1462V15.8342C14.6856 15.9386 14.7065 16.0419 14.7471 16.1383C14.7877 16.2347 14.8472 16.3223 14.9222 16.3961C14.9972 16.4699 15.0862 16.5285 15.1842 16.5684C15.2822 16.6083 15.3873 16.6289 15.4933 16.6289H16.6542C16.8687 16.6293 17.0748 16.5465 17.2276 16.3984L18.0947 15.5418C18.3252 15.317 18.6034 15.1452 18.9095 15.039C19.2156 14.9328 19.5418 14.8948 19.8646 14.9277C20.1874 14.9607 20.4988 15.0637 20.7762 15.2294C21.0536 15.395 21.2902 15.6193 21.4689 15.8858L22.6752 17.6678C22.7496 17.7752 22.8498 17.8627 22.9669 17.9228C23.084 17.9828 23.2144 18.0134 23.3465 18.0118H24.8255V18.686Z" fill="#343A40"/>
<path d="M23.9296 14.8436L23.2863 14.4239C23.0795 14.2872 22.8361 14.2142 22.587 14.214C22.0703 14.2131 21.5749 14.0118 21.2083 13.6537C20.8417 13.2955 20.6335 12.8096 20.6289 12.3013V10.0859L21.3282 11.118V12.3013C21.3291 12.6301 21.4625 12.9451 21.6991 13.1772C21.9358 13.4094 22.2563 13.5398 22.5905 13.5398C22.9773 13.5405 23.3554 13.6529 23.6779 13.8631L24.3212 14.2863L23.9296 14.8436Z" fill="#343A40"/>
<path d="M11.5314 23.6058C11.5315 23.5309 11.5513 23.4573 11.5889 23.3921C11.5894 23.3912 11.59 23.3902 11.5905 23.3893C11.6292 23.3235 11.6848 23.2688 11.7517 23.2308L11.5314 23.6058ZM11.5314 23.6058V23.6087V23.6092V24.7892V24.7926V23.6058Z" fill="#43BFA1" stroke="#343A40" strokeWidth="1.5"/>
<path d="M14.6884 8.02211L14.3388 9.74214H12.5905L12.2409 10.7742L6.99609 11.4622C6.99609 11.4622 10.143 7.6781 14.6884 8.02211Z" fill="#76B940" fill-opacity="0.6"/>
<path d="M6.75934 12.1329L6.53906 11.4792L8.46914 10.8463C9.31029 10.5708 10.191 10.4303 11.0775 10.43H12.0671C12.1134 10.43 12.1579 10.4119 12.1907 10.3796C12.2235 10.3474 12.2419 10.3036 12.2419 10.258C12.2419 10.0299 12.334 9.81118 12.4979 9.64989C12.6618 9.48861 12.8842 9.398 13.116 9.398H14.165C14.2113 9.398 14.2558 9.37988 14.2886 9.34762C14.3214 9.31536 14.3398 9.27161 14.3398 9.226V8.02197H15.0391V9.226C15.0391 9.33894 15.0165 9.45077 14.9726 9.55511C14.9286 9.65945 14.8642 9.75426 14.7831 9.83412C14.7019 9.91398 14.6055 9.97733 14.4995 10.0205C14.3934 10.0638 14.2798 10.086 14.165 10.086H13.116C13.0699 10.0869 13.026 10.1053 12.9934 10.1374C12.9608 10.1694 12.9421 10.2127 12.9412 10.258C12.9412 10.4861 12.8491 10.7049 12.6852 10.8661C12.5212 11.0274 12.2989 11.118 12.0671 11.118H11.0775C10.2659 11.1189 9.45959 11.2478 8.68942 11.4999L6.75934 12.1329Z" fill="#343A40"/>
<path d="M14.5091 28.8343C20.3023 28.8343 24.9986 24.2137 24.9986 18.5141C24.9986 12.8144 20.3023 8.19385 14.5091 8.19385C8.71586 8.19385 4.01953 12.8144 4.01953 18.5141C4.01953 24.2137 8.71586 28.8343 14.5091 28.8343Z" stroke="#343A40" stroke-miterlimit="10"/>
<g clip-path="url(#clip1_7944_11756)">
<path d="M36.3139 10.3321C35.8439 10.8912 35.4848 11.5328 35.2553 12.2231C35.2553 12.2231 33.9046 17.1678 28.0609 16.0768C28.0521 16.0762 27.1168 7.91619 36.3139 10.3321Z" fill="#76B940"/>
<path d="M36.3139 10.3321C35.9113 10.9341 35.5574 11.5664 35.2553 12.2231C35.2553 12.2231 33.6937 17.4346 28.0609 16.0768C28.0521 16.0762 27.1168 7.91619 36.3139 10.3321Z" stroke="#343A40" strokeWidth="0.8" strokeLinecap="round" strokeLinejoin="round"/>
<path d="M30.9277 13.8975C30.9277 13.8975 30.024 14.1729 28.94 15.2343L28.3789 15.7204" stroke="#343A40" strokeWidth="0.8" strokeLinecap="round" strokeLinejoin="round"/>
</g>
<g clip-path="url(#clip2_7944_11756)">
<path d="M12.731 2.38628C13.4787 3.23187 14.0597 4.21128 14.4434 5.27284C14.4434 5.27284 16.7412 12.8914 25.6813 10.9039C25.6949 10.9025 26.7701 -1.82813 12.731 2.38628Z" fill="#76B940"/>
<path d="M12.731 2.38628C13.3769 3.30188 13.501 3.50049 14.0012 4.5C14.0012 4.5 16.5015 14 25.6813 10.9039C25.6949 10.9025 26.7701 -1.82813 12.731 2.38628Z" fill="#76B940" stroke="#343A40" strokeWidth="0.8" strokeLinecap="round" strokeLinejoin="round"/>
</g>
<path d="M20.6968 6.91129C23.211 8.2177 25.2504 10.282 26.5263 12.8119C27.8021 15.3418 28.2497 18.209 27.8056 21.0073C27.3615 23.8057 26.0483 26.3934 24.0519 28.4039C22.0555 30.4144 19.4771 31.7458 16.6821 32.2095C13.887 32.6732 11.0168 32.2458 8.47816 30.9877C5.93948 29.7295 3.86097 27.7046 2.53701 25.1995C1.21305 22.6945 0.710758 19.8364 1.10129 17.0301C1.49181 14.2237 2.75536 11.6114 4.71296 9.56312" stroke="#343A40" strokeLinecap="round" strokeLinejoin="round"/>
</g>
<defs>
<clipPath id="clip0_7944_11756">
<rect width="38" height="34" fill="white"/>
</clipPath>
<clipPath id="clip1_7944_11756">
<rect width="9" height="13" fill="white" transform="translate(38.0156 7.38623) rotate(79.9422)"/>
</clipPath>
<clipPath id="clip2_7944_11756">
<rect width="11.7795" height="16.1322" fill="white" transform="translate(10.6484 10.9038) rotate(-81.6916)"/>
</clipPath>
</defs>
</svg>
