<svg width="30" height="30" viewBox="0 0 30 30" fill="none" xmlns="http://www.w3.org/2000/svg">
<g clip-path="url(#clip0_2595_9657)">
<path d="M2.02246 11.9523V8.73999C2.02246 8.00784 2.66117 7.40381 3.43536 7.40381H26.487C27.2612 7.40381 27.8999 8.00784 27.8999 8.73999V11.9523" stroke="#343A40" stroke-miterlimit="10"/>
<path d="M21.9286 24.8198H1.45114C0.918882 24.8198 0.483398 24.408 0.483398 23.9047V17.7912C0.483398 17.2878 0.918882 16.876 1.45114 16.876H21.9286C22.4608 16.876 22.8963 17.2878 22.8963 17.7912V23.9047C22.8963 24.408 22.4608 24.8198 21.9286 24.8198Z" stroke="#4ABFA1" stroke-miterlimit="10"/>
<path d="M28.5479 29.5424H1.45114C0.918882 29.5424 0.483398 29.1306 0.483398 28.6272V12.8676C0.483398 12.3642 0.918882 11.9524 1.45114 11.9524H28.5479C29.0802 11.9524 29.5157 12.3642 29.5157 12.8676V28.618C29.5157 29.1306 29.0802 29.5424 28.5479 29.5424Z" stroke="#343A40" stroke-miterlimit="10"/>
<path d="M3.43462 7.40395C3.43462 7.40395 3.38623 4.68583 6.26043 4.15501C6.26043 4.15501 9.67656 3.64251 12.2895 3.31304C14.9024 2.98357 19.3249 2.47106 20.3508 1.30877C20.3508 1.30877 21.0669 0.576613 21.0959 0.448486C21.0959 0.448486 25.3443 1.87619 26.3895 6.99211C26.3895 6.99211 26.4862 7.40395 26.3895 7.40395" stroke="#343A40" stroke-miterlimit="10" strokeLinecap="round" strokeLinejoin="round"/>
</g>
<defs>
<clipPath id="clip0_2595_9657">
<rect width="30" height="30" fill="white"/>
</clipPath>
</defs>
</svg>
