<svg width="24" height="24" viewBox="0 0 24 24" fill="none" xmlns="http://www.w3.org/2000/svg">
<path d="M13.0542 5.49219L12.748 14.8716H10.5215L10.2061 5.49219H13.0542ZM10.1318 17.7754C10.1318 17.3796 10.2679 17.0518 10.54 16.792C10.8184 16.526 11.1833 16.3931 11.6348 16.3931C12.0924 16.3931 12.4574 16.526 12.7295 16.792C13.0016 17.0518 13.1377 17.3796 13.1377 17.7754C13.1377 18.1589 13.0016 18.4836 12.7295 18.7495C12.4574 19.0155 12.0924 19.1484 11.6348 19.1484C11.1833 19.1484 10.8184 19.0155 10.54 18.7495C10.2679 18.4836 10.1318 18.1589 10.1318 17.7754Z" fill="#4ABFA1"/>
<circle cx="12" cy="12" r="11" stroke="#4ABFA1" stroke-width="2"/>
</svg>
