<svg width="31" height="42" viewBox="0 0 31 42" fill="none" xmlns="http://www.w3.org/2000/svg">
<path d="M7.5 13H24.29V42.0009L15.8642 36.4734L7.5 42.0009V13Z" fill="#D6D6D4"/>
<path d="M7.5 13H24.29V42.0009L15.8642 36.4734L7.5 42.0009V13Z" fill="#D6D6D4"/>
<circle cx="15.6313" cy="15.1313" r="15.1313" fill="#ADB5BD"/>
<path d="M19.2089 18.3476V19.543H13.1323V18.5157L16.0834 15.2968C16.4072 14.9315 16.6624 14.6161 16.8492 14.3504C17.036 14.0848 17.1668 13.8461 17.2415 13.6344C17.3203 13.4186 17.3598 13.209 17.3598 13.0056C17.3598 12.7192 17.3058 12.4681 17.1979 12.2522C17.0941 12.0323 16.9405 11.86 16.7372 11.7355C16.5338 11.6068 16.2868 11.5425 15.9963 11.5425C15.66 11.5425 15.3778 11.6151 15.1495 11.7604C14.9212 11.9057 14.749 12.107 14.6327 12.3643C14.5165 12.6175 14.4584 12.9081 14.4584 13.236H12.9579C12.9579 12.7088 13.0783 12.2273 13.319 11.7915C13.5598 11.3515 13.9084 11.0029 14.365 10.7455C14.8216 10.484 15.3716 10.3533 16.0149 10.3533C16.6209 10.3533 17.1356 10.455 17.559 10.6584C17.9824 10.8618 18.3041 11.1502 18.524 11.5238C18.7482 11.8974 18.8602 12.3394 18.8602 12.8499C18.8602 13.1322 18.8146 13.4124 18.7233 13.6905C18.632 13.9686 18.5012 14.2467 18.331 14.5248C18.165 14.7987 17.9678 15.0747 17.7396 15.3528C17.5113 15.6268 17.2601 15.9049 16.9862 16.1871L15.025 18.3476H19.2089Z" fill="white"/>
</svg>
